<svg width="55" height="49" viewBox="0 0 55 49" fill="none" xmlns="http://www.w3.org/2000/svg">
<g id="Layer_1" clip-path="url(#clip0_812_607)">
<path id="Vector" d="M43.7334 31.104C43.3685 31.2907 42.992 31.4568 42.6402 31.6642C39.4929 33.5237 36.0782 34.4032 32.4259 34.4418C31.3028 34.4534 30.1875 34.3645 29.067 34.313C28.3049 34.2821 27.9621 34.7637 28.1984 35.472C28.4676 36.3076 28.7832 37.1279 29.1436 37.929C29.8249 39.3758 30.5847 40.7849 31.4197 42.1502C31.5599 42.1862 31.6534 42.2558 31.6261 42.418L32.1935 43.1907C32.3213 43.2507 32.4324 43.3406 32.5173 43.4528C32.6021 43.565 32.6581 43.696 32.6804 43.8345L33.6126 45.0218C34.0699 45.2825 34.4332 45.6788 34.6513 46.155H34.724H34.7448H34.7825L34.8149 46.1666L34.837 46.1756L34.8668 46.1911C34.9003 46.2118 34.9302 46.2379 34.9551 46.2683C34.9683 46.284 34.98 46.3008 34.9902 46.3186C35.0018 46.3367 35.0122 46.3557 35.0213 46.3752C35.0304 46.3958 35.0395 46.4164 35.0473 46.4383C36.3665 47.2303 37.7518 47.7016 39.28 47.1105C40.5329 46.6263 41.3041 45.618 41.9222 44.49C43.105 42.3279 43.601 39.9675 43.845 37.5517C44.0619 35.4089 44.0917 33.2532 43.7334 31.104ZM34.9136 38.5986C34.7279 38.8317 34.5241 38.784 34.2891 38.6475C32.8855 37.8298 32.2415 37.9779 31.295 39.3352C31.1353 39.5644 30.9458 39.6648 30.6965 39.5283C30.4472 39.3918 30.4719 39.142 30.5602 38.909C30.8796 38.0359 31.9819 37.3173 33.1296 37.3057C33.7467 37.3344 34.3346 37.5747 34.7928 37.9856C34.9811 38.1569 35.107 38.3565 34.9136 38.5986ZM39.9486 42.0201C39.6331 42.9318 38.5101 43.6864 37.3792 43.6942C36.8252 43.6669 36.2918 43.4778 35.8458 43.1507C35.6277 42.9872 35.4563 42.7644 35.6562 42.4966C35.8562 42.2287 36.0808 42.3189 36.334 42.4618C37.5635 43.1572 38.5191 42.8919 39.1748 41.6776C39.3047 41.429 39.4488 41.2076 39.7604 41.3222C40.1213 41.4496 40.0447 41.7523 39.9486 42.0201ZM42.1714 36.8293C41.9572 36.9464 41.7599 36.8859 41.5781 36.7365C41.3598 36.5533 41.1019 36.4223 40.8243 36.3537C40.5468 36.2852 40.2571 36.281 39.9776 36.3414C39.6981 36.4018 39.4364 36.5251 39.2128 36.702C38.9892 36.8788 38.8096 37.1043 38.6879 37.3611C38.5425 37.6457 38.3646 37.8427 38.0387 37.6624C37.7388 37.4976 37.8297 37.2349 37.9362 36.9889C38.5945 35.4681 40.7718 34.9646 42.039 36.0386C42.1857 36.1674 42.3519 36.2768 42.3376 36.4558C42.3441 36.6425 42.2922 36.7649 42.1727 36.8293H42.1714Z" fill="#F6E384"/>
<path id="Vector_2" d="M51.3159 18.2202C49.5657 18.4031 47.8103 18.3941 46.0549 18.349C45.5613 18.345 45.0697 18.2867 44.5891 18.1752C42.3741 17.6047 40.1746 16.9814 38.1401 15.9036C37.5597 15.5971 37.0131 15.8907 37.004 16.5384C36.9923 17.3613 36.8962 18.1726 36.9547 19.0122C37.0728 20.7146 37.2027 22.4041 37.6039 24.0665C37.6584 24.297 37.6831 24.4992 37.3663 24.5417C37.8029 26.0824 38.4826 27.5449 39.38 28.8749C39.6176 29.2187 39.7215 29.5188 39.2813 29.7763C39.4891 29.8072 39.7176 29.8111 39.7345 30.1034C40.5434 29.7519 41.264 29.2548 41.9949 28.7732C43.1868 27.989 44.1541 28.401 44.4112 29.8034C44.5151 30.3674 44.6021 30.9353 44.6968 31.5006L45.185 31.4774C45.2681 31.3306 45.3084 31.1658 45.4836 31.0744C47.6272 29.9515 49.0269 28.1126 50.2409 26.1192C51.8137 23.5599 52.9466 20.7591 53.5932 17.8313C52.8025 17.8004 52.0832 18.1404 51.3159 18.2202ZM38.4024 20.5819C38.2582 20.3308 38.1881 20.0836 38.4647 19.9097C38.7412 19.7359 38.9191 19.8698 39.0996 20.1248C39.937 21.3043 40.9173 21.4511 42.0482 20.5781C42.2689 20.4081 42.4896 20.26 42.7207 20.5034C42.9713 20.7686 42.8233 21.0017 42.5909 21.2168C42.1261 21.6598 41.3873 21.9585 40.5408 21.9546C40.0969 21.9218 39.6685 21.7789 39.2948 21.5391C38.9212 21.2992 38.6143 20.9701 38.4024 20.5819ZM45.4694 27.8138C45.224 27.998 45.0006 27.9117 44.7994 27.6773C43.7867 26.4965 43.009 26.4308 41.7794 27.4198C41.582 27.5782 41.3899 27.716 41.1575 27.488C40.9251 27.2601 41.0043 27.0348 41.2068 26.821C41.7508 26.2454 42.4065 25.9196 43.2141 25.9299C44.1944 25.9543 44.9461 26.3883 45.4888 27.1893C45.633 27.3953 45.707 27.6361 45.4694 27.8138ZM50.1435 22.0911C49.638 22.5443 48.9895 22.8092 48.3089 22.8406C47.2624 22.7698 46.4561 22.3654 45.9355 21.473C45.7939 21.2309 45.6992 20.9798 45.9822 20.7983C46.286 20.6051 46.4691 20.7764 46.6561 21.0468C47.426 22.1594 48.5114 22.3113 49.5696 21.4627C49.8202 21.2631 50.0565 21.146 50.2863 21.4254C50.4901 21.6713 50.3564 21.8967 50.1448 22.0911H50.1435Z" fill="#ECF0F3"/>
<path id="Vector_3" d="M37.3233 13.5664C38.0633 13.9076 38.7761 14.3146 39.5733 14.5219C39.5591 14.3738 39.5448 14.227 39.5292 14.0789C39.5292 14.0519 39.5292 14.0248 39.5201 13.9978C39.511 13.9707 39.5123 13.945 39.5071 13.9179C39.5019 13.8909 39.4928 13.8381 39.4837 13.7995C39.4669 13.7209 39.4461 13.6436 39.4214 13.5664C39.4097 13.529 39.3968 13.4904 39.3838 13.4531C39.3487 13.3513 39.3098 13.2522 39.2682 13.153C39.2267 13.0539 39.1838 12.956 39.1384 12.8568C39.115 12.8298 39.0916 12.804 39.0709 12.777C39.0501 12.75 39.028 12.7229 39.0072 12.6946C38.9657 12.6392 38.928 12.5813 38.893 12.5233C38.8398 12.4345 38.7917 12.343 38.7463 12.2516C38.7229 12.2065 38.7008 12.1602 38.6788 12.1125C38.671 12.0971 38.6632 12.0816 38.6567 12.0662C38.6268 12.0044 38.5983 11.9374 38.5684 11.8795C38.5541 11.8485 38.5398 11.8176 38.5243 11.7867C38.4957 11.7249 38.4645 11.658 38.4321 11.6026C38.3996 11.5472 38.3672 11.4828 38.3308 11.4236C37.6858 10.3658 36.8835 9.4107 35.9509 8.59058C34.3838 10.1256 32.8218 11.6631 31.2456 13.1891C30.9483 13.4775 31.2041 13.5857 31.3755 13.7299C32.1974 14.4269 33.1245 14.9917 34.1228 15.404C34.4032 15.525 34.7434 15.6358 34.5811 16.0324C34.4188 16.429 34.1124 16.2899 33.8138 16.1779C32.7471 15.7582 31.7595 15.1631 30.8925 14.4176C30.5562 14.1265 30.3394 14.0441 29.9979 14.4176C29.4117 15.0762 28.786 15.6993 28.1243 16.2835C27.7257 16.6299 27.9517 16.7986 28.1893 17.0265C30.5609 19.3728 32.9318 21.7203 35.3017 24.0691C35.4879 24.2471 35.6615 24.4377 35.8211 24.6396C35.8516 24.6773 35.8743 24.7207 35.8877 24.7672C35.9011 24.8137 35.9049 24.8624 35.899 24.9105C35.893 24.9585 35.8775 25.0049 35.8531 25.0468C35.8288 25.0888 35.7963 25.1254 35.7574 25.1547C35.7243 25.1901 35.6841 25.2184 35.6394 25.2377C35.5947 25.257 35.5465 25.267 35.4978 25.267C35.449 25.267 35.4008 25.257 35.3561 25.2377C35.3115 25.2184 35.2713 25.1901 35.2381 25.1547C35.0602 24.9989 34.8914 24.8328 34.7187 24.6666C32.3453 22.3268 29.9667 19.9935 27.6089 17.6395C27.2622 17.2931 27.0584 17.2957 26.7325 17.6472C26.1326 18.2911 25.4965 18.9079 24.8551 19.5144C24.5954 19.7642 24.5344 19.9239 24.8057 20.2407C26.8493 22.6256 27.7244 25.4058 27.5128 28.5144C27.4752 29.0707 27.6504 29.1776 28.149 29.1261C31.0314 28.8299 33.5814 27.7894 35.7302 25.8398C36.0145 25.5822 36.2664 25.4019 36.6234 25.6891L36.7611 25.5475C36.1521 23.5193 35.6211 21.4756 35.3796 19.3663C35.1986 17.8375 35.14 16.2968 35.2043 14.7588C35.2563 13.6372 36.2703 13.0809 37.3233 13.5664ZM33.1971 25.9376C32.2726 26.4991 31.3118 26.9781 30.255 27.2447L29.3279 27.4803C28.9189 27.5048 28.6904 27.4301 28.6476 27.1455C28.6099 26.8957 28.7865 26.7425 29.0176 26.6935C30.3954 26.4144 31.7088 25.8834 32.8906 25.1277C33.1023 24.9899 33.3269 25.0169 33.4476 25.2448C33.6034 25.5436 33.4801 25.7638 33.1971 25.9376Z" fill="#DF9C59"/>
<path id="Vector_4" d="M40.2083 13.2612C38.4633 6.68347 31.9105 2.39532 25.194 3.43452C17.5908 4.61022 12.4882 11.6644 13.9813 19.1449C15.0421 24.4658 18.3283 28.0109 23.5801 29.4725C28.2659 30.777 32.5519 29.712 36.2522 26.5107C36.5119 26.2892 36.7339 26.0716 36.6248 25.6943C36.2678 25.4071 36.0159 25.5874 35.7316 25.8449C33.5828 27.7946 31.0328 28.8351 28.1504 29.1312C27.6518 29.1827 27.4765 29.0759 27.5142 28.5196C27.7258 25.411 26.8507 22.6308 24.8071 20.2459C24.5357 19.9291 24.5916 19.7694 24.8564 19.5196C25.4978 18.9131 26.134 18.2988 26.7339 17.6524C27.0598 17.3008 27.2636 17.2983 27.6103 17.6447C29.9681 19.9986 32.3467 22.332 34.7201 24.6718C34.8889 24.8379 35.0577 25.0041 35.2395 25.1599C35.2726 25.1953 35.3128 25.2235 35.3575 25.2428C35.4022 25.2622 35.4504 25.2721 35.4991 25.2721C35.5479 25.2721 35.5961 25.2622 35.6408 25.2428C35.6855 25.2235 35.7256 25.1953 35.7588 25.1599C35.7977 25.1306 35.8302 25.0939 35.8545 25.052C35.8788 25.01 35.8944 24.9637 35.9003 24.9157C35.9063 24.8676 35.9024 24.8189 35.8891 24.7724C35.8757 24.7259 35.853 24.6825 35.8224 24.6448C35.6629 24.4429 35.4893 24.2523 35.3031 24.0743C32.9331 21.7255 30.5623 19.3779 28.1906 17.0317C27.953 16.7973 27.7271 16.6351 28.1257 16.2887C28.7874 15.7045 29.413 15.0814 29.9993 14.4227C30.3407 14.0467 30.5576 14.1291 30.8938 14.4227C31.7609 15.1683 32.7485 15.7634 33.8152 16.1831C34.1138 16.3015 34.4241 16.4265 34.5825 16.0376C34.7409 15.6487 34.4046 15.5302 34.1242 15.4092C33.1258 14.9969 32.1988 14.432 31.3768 13.7351C31.2093 13.5909 30.9536 13.4775 31.247 13.1942C32.8232 11.6683 34.3851 10.1307 35.9523 8.59576C36.2016 8.12702 36.4171 8.06006 36.804 8.53137C37.6786 9.58961 38.3912 10.7698 38.919 12.034C39.0122 12.3046 39.0863 12.5813 39.1411 12.862C39.1839 12.9612 39.2268 13.059 39.2709 13.1582C39.315 13.2573 39.3514 13.3565 39.3865 13.4582C39.3994 13.4956 39.4124 13.5342 39.4241 13.5716C39.4488 13.6488 39.4695 13.7261 39.4864 13.8046C39.4955 13.8433 39.5033 13.8832 39.5098 13.9231C39.5163 13.963 39.5202 13.9759 39.5228 14.0029C39.5254 14.03 39.5306 14.057 39.5332 14.0841C40.2538 14.0892 40.3836 13.9373 40.2083 13.2612ZM26.6456 28.6548C26.604 29.1093 26.3989 29.1557 26.0107 29.1145C24.7348 28.9906 23.4896 28.6518 22.3285 28.1126C21.582 28.0766 21.047 27.5782 20.4498 27.237C19.9304 26.9421 19.4812 26.5326 18.9852 26.1952C18.4659 25.8436 18.5957 25.5835 19.0722 25.3453C20.5251 23.7356 22.1364 22.2805 23.6503 20.7314C23.8632 20.5124 23.9969 20.5923 24.1696 20.7957C26.0561 23.0802 26.9118 25.6917 26.6456 28.6548ZM26.1652 17.0652C25.4991 17.6769 24.8668 18.3259 24.2436 18.98C23.9982 19.2376 23.8346 19.262 23.5568 19.0097C22.9441 18.4654 22.266 17.9982 21.5378 17.6189C21.2781 17.4785 21.0405 17.4206 20.8601 17.6949C20.651 18.013 20.8497 18.2241 21.1197 18.3658C21.7635 18.7162 22.3722 19.1267 22.9375 19.5917C23.1815 19.7823 23.2932 19.9162 23.0128 20.1879C21.482 21.6701 19.9668 23.169 18.4464 24.6615C18.1569 25.1612 17.9271 25.2281 17.4934 24.7169C13.5334 20.0669 13.5607 13.1273 17.5661 8.50433C17.9102 8.1077 18.0971 8.13346 18.3763 8.50433C18.636 8.84557 19.0437 9.05032 19.2293 9.45467C19.9655 10.0213 20.5718 10.7231 21.2314 11.3695C22.8673 12.9741 24.4838 14.5992 26.1275 16.1972C26.4599 16.5127 26.5378 16.7214 26.1652 17.0639V17.0652ZM29.502 13.7583C28.8268 14.3893 28.1751 15.046 27.5337 15.7105C27.2831 15.968 27.1091 15.9796 26.8494 15.7195C24.5271 13.3921 22.1987 11.0716 19.8642 8.75801C19.5046 8.42063 19.1514 8.0768 18.784 7.74843C18.5542 7.54368 18.6347 7.39945 18.8307 7.23333C21.0237 5.3996 23.5269 4.32563 26.4093 4.15694C26.7897 4.13505 26.9066 4.25223 26.8429 4.61924C26.7793 4.98624 26.7585 5.34165 26.7131 5.70222C26.8079 7.60549 27.2234 9.42249 28.1413 11.1107C28.5208 11.8071 28.9739 12.4615 29.4929 13.0629C29.7123 13.3153 29.7863 13.4917 29.502 13.757V13.7583ZM35.1992 8.03559C33.6996 9.54739 32.1948 11.0553 30.703 12.5736C30.4602 12.8208 30.3135 12.7397 30.1395 12.5208C28.4789 10.5042 27.5817 8.22231 27.657 5.59533C27.6661 3.90325 27.4804 4.06165 29.1255 4.28958C31.3799 4.60554 33.498 5.54852 35.2343 7.00927C35.8692 7.52951 35.8705 7.52693 35.1992 8.0343V8.03559Z" fill="#404259"/>
<path id="Vector_5" d="M44.6539 38.2448C44.3384 40.7688 43.7633 43.2167 42.3896 45.4175C40.6342 48.2273 37.8933 48.9794 34.9746 47.4057C32.7986 46.2326 31.1821 44.453 29.7149 42.5227C29.5462 42.2999 29.4553 42.0372 29.7227 41.8453C30.0188 41.638 30.2421 41.8208 30.4277 42.0668C31.36 43.3069 32.3675 44.4787 33.6035 45.4381C33.9191 45.7291 34.2203 46.0369 34.6526 46.1618C34.7331 46.3279 34.8915 46.3871 35.0421 46.4502C36.3613 47.2422 37.7466 47.7135 39.2748 47.1224C40.5277 46.6382 41.299 45.63 41.917 44.5019C43.0998 42.3398 43.5958 39.9794 43.8399 37.5636C44.0554 35.4092 44.0853 33.2523 43.7269 31.1043C43.7827 30.718 43.6633 30.3317 43.5971 29.9608C43.4672 29.1624 43.1141 29.0118 42.4519 29.4625C40.4305 30.8621 38.1945 31.9287 35.8302 32.6213C33.2686 33.3527 30.6459 33.4776 28.0011 33.3463C27.6337 33.3282 27.2675 33.2961 26.9014 33.2883C26.2431 33.2754 26.025 33.5459 26.2262 34.164C26.6595 35.4631 27.1962 36.726 27.831 37.9409C27.9842 38.2435 28.1842 38.5474 27.7674 38.7547C27.3779 38.9479 27.248 38.6118 27.1039 38.3427C26.4483 37.0901 25.8892 35.7901 25.4316 34.4537C25.0084 33.2626 25.677 32.3933 26.9468 32.459C29.2138 32.5749 31.4807 32.6432 33.7308 32.2504C35.8386 31.8928 37.8653 31.1659 39.7163 30.1038C40.5251 29.7522 41.2457 29.2551 41.9767 28.7735C43.1686 27.9893 44.1359 28.4014 44.393 29.8037C44.4968 30.3677 44.5838 30.9356 44.6786 31.501C44.8578 33.7519 44.9331 36.0029 44.6539 38.2448Z" fill="#404259"/>
<path id="Vector_6" d="M13.1425 24.377C13.1425 23.6907 12.9569 23.5786 12.3181 23.8619C10.638 24.5921 9.00463 25.4574 7.27131 26.0253C5.64056 26.5585 5.07057 27.4418 5.2861 29.1159C5.4497 30.3907 5.31856 31.703 5.31856 33.0486C3.76052 32.455 2.42191 32.6726 1.35465 33.8728C0.267918 35.0974 0.866466 36.8745 2.43879 37.1552C3.32038 37.3123 4.16432 37.1913 4.92126 36.6813C5.67821 36.1714 6.17029 35.5082 6.1612 34.554C6.14822 33.1825 6.1612 31.8098 6.12225 30.4332C6.11186 30.0147 6.27546 29.8396 6.6416 29.6838C7.9893 29.1082 9.31623 28.4875 10.6665 27.9054C11.056 27.738 11.2313 27.532 11.0366 27.1225C10.7912 26.9641 10.5705 27.0375 10.3199 27.1495C9.17341 27.6646 8.01787 28.1501 6.86622 28.6484C6.13653 29.0489 6.17419 29.0463 6.12355 28.2415C6.0872 27.6685 6.26637 27.3852 6.82337 27.156C8.64108 26.4065 10.438 25.5836 12.2479 24.7865C12.418 24.999 12.3284 25.2089 12.3233 25.4085L12.331 26.5919V30.947C10.7405 30.3586 9.38504 30.6277 8.42555 31.6875C7.58291 32.6185 7.57253 33.8226 8.44893 34.5463C9.38894 35.3189 10.4549 35.2713 11.5001 34.8038C12.4622 34.3776 13.1477 33.6706 13.1542 32.549C13.162 29.8241 13.1503 27.1006 13.1425 24.377ZM4.9719 35.5185C4.3357 36.228 3.54369 36.5242 2.59069 36.3027C1.56758 35.9808 1.32998 35.2339 1.97916 34.4046C2.76597 33.4002 4.64341 33.1568 5.2082 34.1805C5.47696 34.6866 5.31726 35.1322 4.9719 35.5185ZM12.2181 33.0139C11.7961 33.9629 10.6419 34.4844 9.59149 34.1999C8.58655 33.8921 8.33207 33.0834 8.99294 32.294C9.60317 31.5639 10.7263 31.2407 11.5689 31.5536C11.7935 31.6373 12.0129 31.7287 12.0882 31.9914H12.0779H12.0844L12.2142 32.1202C12.444 32.4163 12.3505 32.7151 12.2181 33.0139Z" fill="#404259"/>
<path id="Vector_7" d="M48.4555 3.71924C47.1974 3.25308 46.691 2.36325 46.617 1.12574C46.6001 0.84888 46.543 0.587469 46.2015 0.586182C45.812 0.586182 45.7705 0.86948 45.7705 1.17081C45.7705 1.8782 45.7705 2.5856 45.7705 3.293V8.09109C45.5666 8.02799 45.4667 7.99966 45.3693 7.96231C44.6857 7.70708 43.9333 7.69927 43.2445 7.94025C42.5557 8.18123 41.9748 8.65556 41.604 9.27967C40.8743 10.4837 41.2548 11.8551 42.4791 12.4398C44.2553 13.2819 46.6014 11.7779 46.604 9.79218C46.604 7.77688 46.604 5.76287 46.604 3.65099C46.9106 3.85457 47.2283 4.04115 47.5557 4.20986C48.6528 4.69534 48.6892 4.74169 48.5217 5.94315C48.4867 6.2007 48.4983 6.43507 48.7918 6.50975C49.0852 6.58444 49.2267 6.4106 49.3345 6.16979C49.7577 5.23747 49.4098 4.07208 48.4555 3.71924ZM43.9852 11.7817C43.7298 11.8398 43.4662 11.8529 43.2062 11.8204L43.1322 11.8049C43.101 11.7981 43.0702 11.7895 43.04 11.7792L42.9634 11.7508C42.9421 11.7425 42.9213 11.733 42.9011 11.7225C42.8772 11.7114 42.8542 11.6985 42.8323 11.6839L42.8076 11.6697C42.7842 11.6555 42.7609 11.6414 42.7388 11.6259C42.6946 11.5976 42.6518 11.568 42.6089 11.5384C42.5255 11.4776 42.4477 11.4095 42.3765 11.3349L42.3324 11.286C42.2706 11.2156 42.2174 11.1382 42.174 11.0555C42.1672 11.0438 42.1611 11.0318 42.1558 11.0194C42.0658 10.8292 42.0342 10.6169 42.0649 10.409C42.072 10.3544 42.0819 10.3003 42.0948 10.2468C42.1013 10.2184 42.1091 10.1901 42.1169 10.1618C42.1337 10.1051 42.1545 10.0472 42.1766 9.98792L42.2142 9.89907C42.2259 9.87331 42.2376 9.84755 42.2506 9.8218C42.26 9.80154 42.2704 9.78177 42.2818 9.76257C42.2857 9.75358 42.2905 9.74496 42.296 9.73681C42.3056 9.71765 42.3164 9.69916 42.3285 9.68144C42.3584 9.63122 42.3908 9.581 42.4259 9.53335C42.4609 9.4857 42.4947 9.4445 42.531 9.40458C42.5492 9.38268 42.5687 9.36208 42.5869 9.34148C42.6051 9.32087 42.6258 9.30027 42.6466 9.28096L42.7349 9.19725L42.792 9.14832C42.8189 9.12411 42.8471 9.10133 42.8764 9.08007L42.94 9.03242C42.9673 9.0131 42.9946 8.99379 43.0231 8.97576C43.0517 8.95773 43.0725 8.94228 43.0984 8.92811L43.1413 8.90236L43.1841 8.8779C43.4147 8.74835 43.6645 8.65578 43.9242 8.60361L43.9943 8.59073L44.093 8.57656L44.1865 8.56755H44.2514H44.3397H44.4124H44.4838H44.5357H44.5656L44.6162 8.57528L44.7032 8.59202C44.7375 8.59847 44.7713 8.60707 44.8045 8.61777C44.8618 8.63411 44.9178 8.65477 44.972 8.67958C45.0347 8.70743 45.0947 8.74106 45.1512 8.78003L45.1966 8.81351C45.2022 8.81622 45.2071 8.82019 45.2109 8.8251C45.233 8.84205 45.2542 8.8601 45.2745 8.87918L45.3147 8.91911C45.3248 8.92758 45.3339 8.93707 45.342 8.94743C45.3563 8.96288 45.3693 8.97834 45.3823 8.99508C45.3952 9.01182 45.4186 9.04401 45.4368 9.06977C45.4479 9.07095 45.4588 9.07354 45.4693 9.07749C45.4796 9.08037 45.4893 9.08518 45.4978 9.09166C45.5055 9.09564 45.5126 9.10086 45.5186 9.10711C45.5257 9.11302 45.5318 9.11997 45.5368 9.12772C45.5449 9.13971 45.5523 9.15218 45.5588 9.16506C45.5652 9.17847 45.5709 9.19223 45.5757 9.20627C45.58 9.21585 45.5834 9.22576 45.5861 9.23588C46.1937 10.2506 45.2187 11.5577 43.9852 11.7817Z" fill="#404259"/>
<path id="Vector_8" d="M11.482 10.7526C10.6849 10.4449 10.2032 9.9066 10.0136 9.09662C9.94516 8.80568 9.89615 8.51057 9.86688 8.21323C9.83961 7.94539 9.72796 7.72776 9.4579 7.72003C9.1346 7.70973 9.03852 7.96342 9.03463 8.24929C9.03463 8.39996 9.03463 8.54933 9.03463 8.69871C9.03463 10.6483 9.03463 12.598 9.03463 14.5476C9.03463 14.8798 9.07877 15.1348 8.56202 14.9262C7.1494 14.3544 5.48879 15.0253 4.77728 16.3955C3.98139 17.9279 4.89414 19.5273 6.62616 19.6354C8.32442 19.7423 9.8474 18.3477 9.8539 16.6736C9.86169 14.7279 9.8539 12.7834 9.8539 10.7114C10.1856 11.0181 10.5705 11.2629 10.99 11.4339C11.8495 11.7584 12.0287 12.1138 11.7846 13.0229C11.708 13.3178 11.7106 13.538 12.0248 13.641C12.339 13.744 12.4831 13.5342 12.5844 13.2637C12.992 12.1769 12.5792 11.1763 11.482 10.7526ZM9.00736 17.0625C9.00736 17.0947 8.99827 17.1256 8.99178 17.1565C8.98529 17.1874 8.98529 17.1862 8.98139 17.2016C8.9716 17.2453 8.95903 17.2883 8.94374 17.3304C8.93595 17.351 8.92946 17.3716 8.92167 17.3909C8.91388 17.4102 8.90609 17.4308 8.897 17.4501C8.88899 17.4704 8.87989 17.4901 8.86974 17.5094L8.85675 17.5364C8.85148 17.5456 8.84671 17.5551 8.84247 17.5648C8.8178 17.6098 8.79183 17.6549 8.76457 17.6935C8.7373 17.7322 8.70874 17.7772 8.67888 17.8223L8.66719 17.8378L8.65551 17.8532C8.61656 17.9034 8.57501 17.9537 8.52567 18.0013C8.50403 18.0262 8.48066 18.0507 8.45556 18.0747C8.42829 18.103 8.40102 18.1288 8.37246 18.1545C8.3439 18.1803 8.31533 18.206 8.28547 18.2305C8.25561 18.255 8.22574 18.2794 8.19458 18.3026L8.1011 18.3722L8.0206 18.4262C7.98295 18.4507 7.944 18.4739 7.90505 18.4958L7.80118 18.5524L7.78949 18.5589L7.67005 18.6155C7.6259 18.6361 7.58176 18.6542 7.54021 18.6709L7.48698 18.6902L7.37791 18.725C7.33896 18.7366 7.29871 18.7482 7.25716 18.7572L7.1494 18.7791C7.11564 18.786 7.08189 18.7911 7.04813 18.7945H7.00269H6.93907H6.83C6.66293 18.7956 6.49692 18.7681 6.33922 18.7134H6.31715H6.2743C6.26134 18.7117 6.24867 18.7082 6.23665 18.7031C6.23077 18.7015 6.22568 18.6979 6.22237 18.6928C6.21772 18.6886 6.21412 18.6834 6.21187 18.6776C6.20962 18.6718 6.20877 18.6655 6.20939 18.6593C6.20767 18.6521 6.20767 18.6446 6.20939 18.6374C6.20867 18.6345 6.20867 18.6314 6.20939 18.6284C6.20837 18.6238 6.20837 18.6189 6.20939 18.6142L6.14576 18.6078H6.10681L6.0406 18.5949L6.00684 18.5872C5.98914 18.5834 5.97178 18.5783 5.9549 18.5718C5.93932 18.568 5.92411 18.5628 5.90946 18.5563H5.90167L5.86791 18.5421C5.86497 18.5431 5.86177 18.5431 5.85883 18.5421L5.82896 18.528C5.81042 18.5201 5.79261 18.5106 5.77573 18.4997C5.76543 18.4944 5.75584 18.4879 5.74716 18.4803C5.74595 18.4809 5.74462 18.4812 5.74327 18.4812C5.74192 18.4812 5.74059 18.4809 5.73937 18.4803C5.72495 18.4724 5.71145 18.4629 5.69912 18.452C5.68761 18.4449 5.67713 18.4362 5.66797 18.4262L5.63421 18.3966C5.61392 18.378 5.59525 18.3578 5.57838 18.3361C5.5615 18.3155 5.54462 18.2936 5.52904 18.2717C5.50328 18.2341 5.4807 18.1945 5.46153 18.1532C5.45667 18.1445 5.45234 18.1355 5.44854 18.1262C5.43028 18.0874 5.41467 18.0474 5.4018 18.0064C5.4018 17.991 5.39141 17.9755 5.38752 17.9601C5.36375 17.8735 5.34639 17.7852 5.33558 17.6961C5.246 16.9376 5.62642 16.3839 6.23535 15.9783C6.89492 15.5379 7.59993 15.346 8.35688 15.7387C8.5802 15.8572 8.80612 15.9963 8.83598 16.2938L8.86584 16.3041C8.87501 16.3078 8.88372 16.3125 8.89181 16.3182C8.90645 16.3281 8.91848 16.3414 8.92686 16.3569C8.93138 16.3636 8.93487 16.371 8.93725 16.3787C8.93786 16.3873 8.93786 16.3959 8.93725 16.4045C8.94054 16.4345 8.94054 16.4647 8.93725 16.4946C8.93725 16.5075 8.93725 16.5204 8.93725 16.532C8.94894 16.5642 8.95803 16.5951 8.96711 16.6273C8.9762 16.6595 8.98269 16.6917 8.98789 16.7239C9.00173 16.8064 9.00651 16.8901 9.00217 16.9737C9.01385 16.9943 9.01126 17.0278 9.00736 17.0574V17.0625Z" fill="#404259"/>
<path id="Vector_9" d="M45.1123 16.3981C45.0487 16.7844 44.7228 16.7265 44.4385 16.6904C41.8638 16.3672 39.4462 15.543 37.1325 14.4021C36.3951 14.039 36.0939 14.1986 36.064 15.0138C35.9438 18.0357 36.3165 21.0569 37.1676 23.961C37.2208 24.1477 37.152 24.3962 37.3624 24.5366C37.7997 26.0793 38.4807 27.5436 39.38 28.8749C39.6176 29.2188 39.7215 29.5188 39.2813 29.7764C38.9152 29.739 38.7516 29.4622 38.5711 29.1956C37.8064 28.0637 37.3325 26.7901 36.7599 25.5642C36.151 23.536 35.6199 21.4924 35.3785 19.3831C35.1975 17.8542 35.1389 16.3136 35.2032 14.7756C35.2564 13.6372 36.2704 13.0809 37.3234 13.5664C38.0635 13.9076 38.7763 14.3146 39.5735 14.5219C41.1471 15.27 42.835 15.6036 44.5358 15.8907C44.8591 15.9448 45.1811 15.9822 45.1123 16.3981Z" fill="#404259"/>
<path id="Vector_10" d="M21.5962 34.7871C20.3706 34.3492 19.92 33.4607 19.7655 32.3095C19.7253 32.0081 19.75 31.6373 19.328 31.6656C18.906 31.6939 18.9463 32.0519 18.9463 32.3584C18.9463 34.46 18.9463 36.5633 18.9463 38.6683V39.2297C17.0208 38.6168 15.6212 39.0237 14.7915 40.3951C14.3111 41.1897 14.1981 42.0112 14.7305 42.8174C15.2628 43.6235 16.06 43.8823 16.9844 43.7883C18.6425 43.6209 19.75 42.3718 19.75 40.7106C19.75 38.7275 19.75 36.7431 19.75 34.7034C20.1226 34.9351 20.4095 35.1579 20.7315 35.3047C21.8533 35.8198 21.8858 35.852 21.6728 37.0329C21.6248 37.2994 21.6663 37.5106 21.9598 37.5866C22.2104 37.651 22.3597 37.5222 22.4687 37.3033C22.9284 36.3684 22.5752 35.136 21.5962 34.7871ZM17.5908 42.7826C17.1065 42.9667 16.6014 43.0401 16.0925 42.856L16.0743 42.8483H16.0548C16.0249 42.8415 15.9961 42.8306 15.9691 42.8161C15.9623 42.8124 15.9562 42.8076 15.9509 42.8019C15.9328 42.7826 15.9276 42.7517 15.9509 42.7015C15.9146 42.7015 15.8795 42.7015 15.8471 42.6899C15.8087 42.6835 15.7709 42.674 15.7341 42.6615L15.712 42.6538C15.6877 42.6448 15.6638 42.6345 15.6406 42.6229C15.6238 42.6139 15.6069 42.6049 15.5913 42.5946L15.5588 42.5727C15.5461 42.5635 15.534 42.5536 15.5225 42.5431C15.5045 42.5289 15.4879 42.5129 15.4731 42.4954C15.4574 42.4782 15.4427 42.4602 15.429 42.4413C15.416 42.4233 15.403 42.404 15.3913 42.3847C15.3797 42.3652 15.3693 42.345 15.3602 42.3241C15.3551 42.3146 15.3507 42.3047 15.3472 42.2945C15.3394 42.2778 15.3329 42.2611 15.3264 42.243C15.3116 42.2009 15.2994 42.1579 15.2901 42.1143C15.2823 42.0859 15.2771 42.0576 15.2719 42.0293C15.2667 42.0009 15.2641 41.979 15.2602 41.9546C15.2524 41.8966 15.2472 41.8387 15.2433 41.782C15.1875 40.9733 15.6536 40.4067 16.3288 40.0307C17.0442 39.6315 17.7868 39.5259 18.5048 40.0513C18.561 40.0832 18.6087 40.1279 18.6441 40.1816C18.6796 40.2353 18.7017 40.2965 18.7087 40.3604C18.7306 40.3679 18.7506 40.3802 18.7671 40.3964L18.7827 40.4157C18.79 40.4275 18.7961 40.44 18.8009 40.4531C18.8037 40.4632 18.8058 40.4736 18.8073 40.484C18.8087 40.4938 18.8087 40.5038 18.8073 40.5136C18.8073 40.5394 18.8073 40.5651 18.8151 40.5909C19.0982 41.4189 18.5503 42.4169 17.5908 42.7826Z" fill="#404259"/>
<path id="Vector_11" d="M54.6735 16.7602C54.6177 17.5753 54.3658 18.3583 54.1438 19.1386C53.1336 22.6941 51.6535 26.0254 49.2996 28.9254C48.3907 30.0509 47.3351 31.0296 46.0419 31.7301C45.6524 31.9413 45.3512 31.9657 45.185 31.4725C45.2681 31.3257 45.3084 31.1609 45.4837 31.0695C47.6273 29.9466 49.0269 28.1077 50.2409 26.1143C51.8137 23.555 52.9466 20.7542 53.5932 17.8264C54.1126 16.1678 53.9373 15.9644 52.2715 16.2811C51.8262 16.3648 51.3769 16.4331 50.929 16.5052C50.6693 16.5477 50.4356 16.4717 50.372 16.1949C50.298 15.8691 50.5213 15.7248 50.8044 15.672C51.5834 15.5252 52.3702 15.3578 53.1609 15.2561C54.0516 15.1492 54.7371 15.8343 54.6735 16.7602Z" fill="#404259"/>
<path id="Vector_12" d="M12.3247 26.5865C11.8705 26.7068 11.4341 26.8851 11.0263 27.117C10.7809 26.9586 10.5602 27.0321 10.3096 27.1441C9.16315 27.6592 8.0076 28.1446 6.85595 28.643C6.81181 28.1408 6.8936 27.7545 7.45579 27.5214C9.08784 26.844 10.7017 26.1139 12.313 25.4031L12.3247 26.5865Z" fill="#859ACC"/>
<path id="Vector_13" d="M48.9749 16.728C48.1647 16.8645 47.348 16.8503 46.5314 16.8233C46.3041 16.8155 46.1951 16.643 46.2016 16.4253C46.1978 16.3715 46.2059 16.3175 46.2251 16.2671C46.2444 16.2166 46.2744 16.1709 46.3131 16.133C46.3518 16.0951 46.3983 16.0659 46.4494 16.0475C46.5005 16.029 46.555 16.0218 46.6093 16.0261C46.9988 16.0184 47.3883 16.0261 47.6648 16.0261C48.1348 15.9875 48.4997 15.9476 48.8632 15.9309C49.1021 15.9206 49.2917 16.0274 49.3293 16.2773C49.367 16.5271 49.2125 16.6868 48.9749 16.728Z" fill="#404259"/>
<path id="Vector_14" d="M29.3086 41.2991C29.2626 41.3278 29.211 41.3466 29.1572 41.3543C29.1034 41.3621 29.0486 41.3585 28.9962 41.344C28.9439 41.3294 28.8952 41.3042 28.8533 41.2698C28.8114 41.2355 28.7772 41.1928 28.7529 41.1446C28.4508 40.7059 28.1717 40.252 27.9168 39.7847C27.7415 39.4486 27.8921 39.2143 28.3206 39.1409C28.3868 39.1795 28.5101 39.2091 28.5595 39.2851C28.875 39.7641 29.1918 40.2457 29.4683 40.7467C29.499 40.7921 29.5194 40.8437 29.5279 40.8977C29.5365 40.9518 29.533 41.0071 29.5178 41.0597C29.5026 41.1123 29.476 41.161 29.4399 41.2023C29.4038 41.2437 29.359 41.2767 29.3086 41.2991Z" fill="#404259"/>
<path id="Vector_15" d="M34.6552 46.1628C34.2229 46.034 33.9217 45.7301 33.6062 45.4391C33.6062 45.3 33.6062 45.1622 33.6153 45.0244C34.0725 45.2851 34.4358 45.6814 34.6539 46.1576C34.6539 46.1576 34.6539 46.1602 34.6552 46.1628Z" fill="#F6E384"/>
<path id="Vector_16" d="M32.6778 43.836C32.3234 43.7652 32.1754 43.5398 32.1909 43.1921C32.3187 43.2521 32.4299 43.3421 32.5147 43.4543C32.5996 43.5665 32.6555 43.6975 32.6778 43.836Z" fill="#F6E384"/>
<path id="Vector_17" d="M31.6262 42.4192C31.4678 42.3973 31.4158 42.2904 31.4197 42.1514C31.56 42.1874 31.6534 42.257 31.6262 42.4192Z" fill="#F6E384"/>
<path id="Vector_18" d="M37.3805 43.6841C36.8265 43.6568 36.2931 43.4677 35.8471 43.1407C35.629 42.9771 35.4576 42.7543 35.6576 42.4865C35.8575 42.2186 36.0821 42.3088 36.3353 42.4517C37.5649 43.1471 38.5204 42.8818 39.1761 41.6675C39.306 41.4189 39.4501 41.1975 39.7617 41.3121C40.1213 41.4408 40.0447 41.7422 39.95 42.0165C39.6345 42.932 38.5114 43.6841 37.3805 43.6841Z" fill="#404259"/>
<path id="Vector_19" d="M33.1296 37.3059C33.7467 37.3345 34.3346 37.5749 34.7928 37.9858C34.9811 38.1571 35.107 38.3567 34.9136 38.5988C34.7201 38.8409 34.524 38.7842 34.289 38.6477C32.8855 37.83 32.2415 37.9781 31.295 39.3354C31.1353 39.5646 30.9458 39.665 30.6965 39.5285C30.4472 39.392 30.4719 39.1422 30.5601 38.9091C30.8795 38.0361 31.9819 37.3175 33.1296 37.3059Z" fill="#404259"/>
<path id="Vector_20" d="M42.3377 36.4561C42.3441 36.6428 42.2922 36.7651 42.1728 36.8295C41.9585 36.9467 41.7612 36.8862 41.5794 36.7368C41.3611 36.5535 41.1032 36.4225 40.8257 36.354C40.5481 36.2854 40.2584 36.2812 39.9789 36.3416C39.6994 36.402 39.4378 36.5254 39.2141 36.7022C38.9905 36.8791 38.8109 37.1046 38.6892 37.3613C38.5438 37.6459 38.366 37.8429 38.0401 37.6627C37.7401 37.4978 37.831 37.2351 37.9375 36.9892C38.5958 35.4684 40.7731 34.9649 42.0403 36.0388C42.1857 36.1637 42.3519 36.2771 42.3377 36.4561Z" fill="#404259"/>
<path id="Vector_21" d="M35.0486 46.45C34.8902 46.3856 34.7292 46.3212 34.65 46.1564C34.8668 46.1422 34.9811 46.2658 35.0486 46.45Z" fill="#F6E384"/>
<path id="Vector_22" d="M48.3101 22.8408C47.2636 22.77 46.4573 22.3656 45.9367 21.4732C45.7951 21.2311 45.7004 20.98 45.9834 20.7984C46.2872 20.6053 46.4703 20.7765 46.6573 21.047C47.4272 22.1596 48.5126 22.3115 49.5708 21.4629C49.8214 21.2633 50.0577 21.1461 50.2875 21.4256C50.49 21.6715 50.3563 21.8969 50.1447 22.0913C49.6392 22.5445 48.9907 22.8094 48.3101 22.8408Z" fill="#404259"/>
<path id="Vector_23" d="M40.5472 21.9547C40.1022 21.923 39.6725 21.7805 39.2976 21.5406C38.9228 21.3007 38.6149 20.971 38.4023 20.582C38.2582 20.3309 38.1881 20.0837 38.4647 19.9098C38.7412 19.736 38.9191 19.8699 39.0996 20.1249C39.937 21.3044 40.9173 21.4512 42.0481 20.5781C42.2689 20.4082 42.4896 20.2601 42.7207 20.5035C42.9713 20.7687 42.8233 21.0018 42.5909 21.2169C42.1325 21.6637 41.3938 21.9586 40.5472 21.9547Z" fill="#404259"/>
<path id="Vector_24" d="M43.214 25.9236C44.1943 25.948 44.946 26.382 45.4888 27.183C45.6329 27.3955 45.7069 27.6363 45.4693 27.814C45.2317 27.9917 45.0006 27.9118 44.7993 27.6775C43.7866 26.4966 43.0089 26.4309 41.7793 27.4199C41.582 27.5783 41.3898 27.7161 41.1574 27.4882C40.925 27.2602 41.0042 27.0349 41.2068 26.8211C41.7508 26.2391 42.4064 25.9133 43.214 25.9236Z" fill="#404259"/>
<path id="Vector_25" d="M29.3254 27.4806C28.9165 27.505 28.688 27.4303 28.6451 27.1457C28.6075 26.8959 28.784 26.7427 29.0151 26.6938C30.3929 26.4146 31.7063 25.8836 32.8882 25.1279C33.0998 24.9901 33.3244 25.0171 33.4452 25.2451C33.6036 25.5438 33.4802 25.7601 33.1946 25.9378C32.2701 26.4993 31.3094 26.9783 30.2525 27.2449L29.3254 27.4806Z" fill="#404259"/>
<path id="Vector_26" d="M26.1327 16.1974C24.489 14.5993 22.8725 12.9781 21.2366 11.3697C20.577 10.7258 19.9707 10.0214 19.2345 9.45483C18.0875 10.5676 17.2314 11.9409 16.7404 13.4558C15.3836 17.4748 15.9302 21.2183 18.4516 24.6591C19.972 23.1666 21.4872 21.6677 23.018 20.1855C23.2984 19.9138 23.1867 19.7799 22.9426 19.5893C22.3774 19.1243 21.7687 18.7138 21.1249 18.3634C20.8536 18.2217 20.6549 18.0105 20.8653 17.6925C21.0457 17.4182 21.2807 17.4761 21.543 17.6165C22.2712 17.9958 22.9493 18.4629 23.562 19.0072C23.8398 19.2648 24.0034 19.2352 24.2488 18.9776C24.872 18.3235 25.5043 17.6744 26.1704 17.0628C26.5378 16.7215 26.4599 16.5129 26.1327 16.1974ZM20.0486 17.4066C20.0137 17.5093 19.9403 17.5948 19.8437 17.6454C19.747 17.696 19.6344 17.7078 19.5292 17.6783C19.0281 17.5611 18.5308 17.4207 18.0309 17.2997C17.7881 17.2392 17.6414 17.0924 17.6843 16.8413C17.7245 16.5644 17.9219 16.455 18.1841 16.455C18.7392 16.5424 19.2832 16.6883 19.8071 16.8902C20.02 16.9829 20.1499 17.1568 20.0486 17.4066Z" fill="#DF9C59"/>
<path id="Vector_27" d="M29.5019 13.7571C28.8268 14.3881 28.175 15.0448 27.5336 15.7093C27.283 15.9668 27.109 15.9784 26.8494 15.7183C24.527 13.3909 22.1986 11.0705 19.8642 8.75683C21.8195 7.01195 24.0709 5.92382 26.7182 5.70361C26.813 7.60688 27.2285 9.42388 28.1464 11.1121C28.5259 11.8085 28.979 12.4629 29.498 13.0643C29.7123 13.3154 29.7863 13.4918 29.5019 13.7571Z" fill="#DF9C59"/>
<path id="Vector_28" d="M26.6456 28.6547C26.604 29.1093 26.3989 29.1556 26.0107 29.1144C24.7348 28.9905 23.4896 28.6517 22.3285 28.1126C22.2584 27.9722 22.1221 27.9156 21.9987 27.8306C20.947 27.0914 19.8629 26.3857 19.0722 25.3452C20.5251 23.7356 22.1363 22.2804 23.6502 20.7313C23.8632 20.5124 23.9969 20.5922 24.1696 20.7957C26.0561 23.0801 26.9117 25.6916 26.6456 28.6547Z" fill="#DF9C59"/>
<path id="Vector_29" d="M35.1992 8.03449C33.6996 9.54628 32.1948 11.0542 30.703 12.5725C30.4602 12.8197 30.3135 12.7386 30.1395 12.5197C28.4789 10.5031 27.5817 8.22121 27.657 5.59424C28.7983 5.59424 29.9304 5.67794 31.0328 5.98056C32.5557 6.40422 33.9943 6.9837 35.1992 8.03449Z" fill="#DF9C59"/>
<path id="Vector_30" d="M12.2181 33.0139C11.7961 33.9629 10.6419 34.4845 9.59149 34.1999C9.1124 33.3938 9.2682 32.7898 10.0485 32.249C10.6977 31.8034 11.3871 31.9412 12.0818 31.9914L12.2116 32.1202C12.444 32.4164 12.3505 32.7151 12.2181 33.0139Z" fill="#859ACC"/>
<path id="Vector_31" d="M4.97198 35.5185C4.33578 36.2281 3.54378 36.5243 2.59078 36.3028C2.12856 35.4014 2.35837 34.7961 3.23996 34.2849C3.90083 33.8986 4.54482 34.0995 5.20439 34.1806C5.47704 34.6867 5.31734 35.1322 4.97198 35.5185Z" fill="#859ACC"/>
<path id="Vector_32" d="M43.9853 11.7817C43.7299 11.8398 43.4662 11.8529 43.2063 11.8204L43.1322 11.8049C43.101 11.7981 43.0703 11.7895 43.0401 11.7792C43.0141 11.7714 42.9894 11.7611 42.9635 11.7508C42.9422 11.7425 42.9214 11.733 42.9011 11.7225C42.8772 11.7114 42.8542 11.6985 42.8323 11.6839C42.8236 11.6806 42.8153 11.6763 42.8077 11.671C42.3597 10.5687 42.6843 9.69304 43.7373 9.17408C44.2891 8.90237 44.863 9.01956 45.4355 9.07879C45.4875 9.13288 45.5381 9.18696 45.5888 9.24233C46.1938 10.2506 45.2187 11.5577 43.9853 11.7817Z" fill="#859ACC"/>
<path id="Vector_33" d="M42.0676 10.4091C42.074 10.3544 42.0839 10.3002 42.0974 10.2468C42.0846 10.3003 42.0746 10.3545 42.0676 10.4091Z" fill="#ECF0F3"/>
<path id="Vector_34" d="M45.5888 9.24094C45.5381 9.18556 45.4875 9.13148 45.4355 9.07739C45.4467 9.07857 45.4576 9.08117 45.468 9.08512C45.4783 9.08799 45.488 9.0928 45.4966 9.09928C45.5043 9.10326 45.5113 9.10848 45.5173 9.11473C45.5244 9.12064 45.5306 9.1276 45.5355 9.13534C45.5436 9.14733 45.551 9.1598 45.5576 9.17268C45.564 9.18609 45.5696 9.19985 45.5745 9.21389C45.5799 9.22253 45.5847 9.23157 45.5888 9.24094Z" fill="#ECF0F3"/>
<path id="Vector_35" d="M9.01508 16.9637C9.01508 16.9946 9.01508 17.0268 9.00729 17.0577C8.9995 17.0886 8.9982 17.1208 8.99171 17.1517C8.98521 17.1826 8.98521 17.1813 8.98132 17.1968C8.97152 17.2405 8.95895 17.2835 8.94367 17.3256C8.93588 17.3462 8.92938 17.3668 8.92159 17.3861C8.9138 17.4054 8.90601 17.426 8.89692 17.4453C8.88892 17.4655 8.87982 17.4853 8.86966 17.5045L8.85668 17.5316C8.8514 17.5408 8.84663 17.5502 8.8424 17.5599C8.81773 17.605 8.79176 17.6501 8.76449 17.6887C8.73723 17.7273 8.70866 17.7724 8.6788 17.8175L8.66712 17.8329L8.65543 17.8484C8.61648 17.8986 8.57493 17.9488 8.52559 17.9965C8.50395 18.0214 8.48058 18.0458 8.45548 18.0699C8.42822 18.0982 8.40095 18.1239 8.37238 18.1497C8.34382 18.1755 8.31526 18.2012 8.2854 18.2257C8.25553 18.2502 8.22567 18.2746 8.19451 18.2978L8.10103 18.3673L8.02053 18.4214C7.98287 18.4459 7.94393 18.4691 7.90498 18.491L7.8011 18.5476L7.78942 18.5541L7.66997 18.6107C7.62583 18.6313 7.58168 18.6493 7.54013 18.6661L7.4869 18.6854L7.37784 18.7202C7.33889 18.7318 7.29864 18.7434 7.25709 18.7524L7.14933 18.7743C7.11557 18.7811 7.08181 18.7863 7.04805 18.7897H7.00261H6.93899H6.82993C6.66286 18.7908 6.49685 18.7633 6.33915 18.7086L6.23138 18.6017C5.79383 17.5187 6.18074 16.6392 7.27007 16.2155C7.8037 16.0082 8.31526 16.1949 8.8359 16.2645C8.82392 16.311 8.82879 16.3602 8.84968 16.4035C8.87056 16.4468 8.90613 16.4815 8.95016 16.5014C8.96184 16.5336 8.97093 16.5645 8.98002 16.5967C8.98911 16.6289 8.9956 16.6611 9.0008 16.6933C9.01696 16.7825 9.02176 16.8733 9.01508 16.9637Z" fill="#859ACC"/>
<path id="Vector_36" d="M5.34064 17.686C5.35145 17.7752 5.36881 17.8634 5.39258 17.95C5.36756 17.8637 5.35019 17.7754 5.34064 17.686Z" fill="#ECF0F3"/>
<path id="Vector_37" d="M6.23354 18.6239H6.21578V18.6106L6.23354 18.6239Z" fill="#ECF0F3"/>
<path id="Vector_38" d="M8.95142 16.4845C8.95142 16.4974 8.95142 16.5103 8.95142 16.5219C8.90739 16.5019 8.87182 16.4673 8.85094 16.424C8.83005 16.3806 8.82518 16.3314 8.83716 16.2849L8.86702 16.2952L8.89299 16.3094C8.90763 16.3193 8.91966 16.3325 8.92805 16.348C8.93228 16.3549 8.93576 16.3623 8.93843 16.3699C8.93904 16.3785 8.93904 16.3871 8.93843 16.3957C8.94598 16.4247 8.95034 16.4545 8.95142 16.4845Z" fill="#ECF0F3"/>
<path id="Vector_39" d="M6.33997 18.7299H6.31776H6.27464C6.2616 18.7281 6.24885 18.7246 6.23675 18.7195C6.23125 18.7171 6.22634 18.7136 6.22238 18.7091C6.21799 18.7047 6.21457 18.6994 6.21232 18.6936C6.21007 18.6878 6.20905 18.6816 6.20932 18.6754C6.20759 18.6682 6.20759 18.6606 6.20932 18.6534C6.20859 18.6504 6.20859 18.6473 6.20932 18.6443C6.20829 18.6396 6.20829 18.6348 6.20932 18.6301V18.6184L6.21977 18.6288L6.33997 18.7299Z" fill="#ECF0F3"/>
<path id="Vector_40" d="M15.9536 42.6821H15.9609C15.9602 42.687 15.9602 42.6919 15.9609 42.6967L15.9536 42.6821Z" fill="#859ACC"/>
<path id="Vector_41" d="M18.7089 40.3567H18.6983V40.3513L18.7089 40.3567Z" fill="#859ACC"/>
<path id="Vector_42" d="M17.5908 42.7825C17.1065 42.9667 16.6015 43.0401 16.0925 42.8559C16.0756 42.7774 16.0523 42.704 15.9627 42.6834C15.6757 41.46 16.1444 40.6462 17.3117 40.2766C17.7986 40.1234 18.2361 40.3822 18.7009 40.3552C18.6948 40.4021 18.7033 40.4497 18.7253 40.4916C18.7474 40.5336 18.7819 40.5677 18.8243 40.5895C19.0982 41.4188 18.5503 42.4168 17.5908 42.7825Z" fill="#859ACC"/>
<path id="Vector_43" d="M15.9619 42.6833C15.9612 42.6882 15.9612 42.6932 15.9619 42.698H15.9458C15.9452 42.6932 15.9452 42.6882 15.9458 42.6833H15.9619Z" fill="#ECF0F3"/>
<path id="Vector_44" d="M18.8217 40.5932C18.7793 40.5715 18.7448 40.5373 18.7227 40.4953C18.7007 40.4534 18.6922 40.4058 18.6983 40.3589H18.7061C18.7281 40.3664 18.748 40.3787 18.7645 40.3949L18.7801 40.4143C18.7875 40.426 18.7936 40.4386 18.7983 40.4516C18.8011 40.4618 18.8033 40.4721 18.8048 40.4825C18.8061 40.4923 18.8061 40.5023 18.8048 40.5121C18.8178 40.5379 18.8191 40.5636 18.8217 40.5932Z" fill="#ECF0F3"/>
<path id="Vector_45" d="M16.0926 42.8559L16.0744 42.8482H16.0549C16.025 42.8414 15.9962 42.8305 15.9692 42.816C15.9623 42.8124 15.9562 42.8076 15.9511 42.8018C15.9329 42.7825 15.9277 42.7516 15.9511 42.7014C15.9505 42.6971 15.9505 42.6928 15.9511 42.6885H15.9575C16.0588 42.7039 16.0757 42.7825 16.0926 42.8559Z" fill="#ECF0F3"/>
<path id="Vector_46" d="M18.1803 16.4551C18.7353 16.5425 19.2794 16.6884 19.8032 16.8903C20.02 16.983 20.1499 17.162 20.0486 17.4054C20.0137 17.5082 19.9404 17.5937 19.8437 17.6442C19.747 17.6948 19.6344 17.7066 19.5293 17.6771C19.0281 17.56 18.5308 17.4196 18.0309 17.2985C17.7882 17.238 17.6414 17.0912 17.6843 16.8401C17.7206 16.5645 17.918 16.4577 18.1803 16.4551Z" fill="#404259"/>
</g>
<defs>
<clipPath id="clip0_812_607">
<rect width="53.8744" height="47.6281" fill="white" transform="translate(0.802925 0.586182)"/>
</clipPath>
</defs>
</svg>
