<svg width="41" height="51" viewBox="0 0 41 51" fill="none" xmlns="http://www.w3.org/2000/svg">
<g id="Group 7">
<g id="Group">
<path id="Vector" d="M38.2469 27.4643C38.1498 29.718 37.8586 31.7621 37.3247 33.5965C36.8393 35.3261 36.1113 36.8985 35.1891 38.2088C33.4903 40.6722 31.4032 41.8777 29.9957 42.6639C29.8986 42.7163 29.0735 43.188 25.0935 45.3369L25.142 45.4417H25.2391V27.6215H38.344V27.4119H25.045V45.599L25.1906 45.5465C29.1706 43.3976 29.9957 42.9783 30.0928 42.8735C31.5003 42.0349 33.5874 40.8294 35.3347 38.3136C36.2569 37.0033 36.9849 35.431 37.5188 33.6489C38.0527 31.8145 38.344 29.7704 38.441 27.4643H38.2469Z" fill="#FFDE26"/>
</g>
<g id="Group_2">
<path id="Vector_2" d="M14.9008 27.5168V45.4418H14.9979L15.0464 45.337C11.0664 43.1881 10.2413 42.7688 10.1442 42.6639C8.73667 41.8253 6.69814 40.6199 4.95082 38.1565C4.02863 36.8462 3.30058 35.2738 2.81522 33.5442C2.28131 31.7622 1.99009 29.7181 1.89302 27.4119H1.79595V27.5168H14.9979V27.3071H1.69888V27.4119C1.79595 29.6657 2.08717 31.7622 2.62107 33.5966C3.15497 35.3786 3.88302 36.8986 4.80521 38.2613C6.55253 40.7247 8.6396 41.9826 10.0472 42.8212C10.1928 42.8736 11.0179 43.3453 14.9493 45.4942L15.095 45.599V27.5168H14.9008Z" fill="#FFDE26"/>
</g>
<g id="Group_3">
<path id="Vector_3" d="M38.344 1.93906V1.83423H25.045V16.6669H38.4896V1.83423H38.344V1.93906H38.2469V16.4573H25.2391V2.04387H38.344V1.93906H38.2469H38.344Z" fill="#262626"/>
</g>
<g id="Group_4">
<path id="Vector_4" d="M14.9979 1.93906V1.83423H1.69888V16.6669H15.095V1.83423H14.9979V1.93906H14.9008V16.4573H1.89302V2.04387H14.9979V1.93906H14.9008H14.9979Z" fill="#262626"/>
</g>
<g id="Group_5">
<path id="Vector_5" d="M20.0941 50.3683L19.7058 50.1586C19.1234 49.8441 9.80438 44.865 9.27048 44.5505C6.26121 42.7685 0 39.0996 0 26.2062V0H40.2368V26.2062C40.2368 39.0996 33.9756 42.7685 30.9663 44.5505C30.4324 44.865 21.0649 49.8966 20.531 50.1586L20.0941 50.3683Z" fill="#2B2C2C"/>
</g>
<g id="Group_6">
<path id="Vector_6" d="M24.1713 17.6104V0.890869H15.9686V17.6104H0.825233V26.206V26.4681H15.9686V47.1185C18.1528 48.2716 20.0457 49.3199 20.0457 49.3199C20.0457 49.3199 21.9386 48.2716 24.1228 47.1185V26.4681H39.2662V26.206V17.6104C39.3147 17.6104 24.1713 17.6104 24.1713 17.6104Z" fill="white"/>
</g>
<g id="Group_7">
<path id="Vector_7" d="M15.9686 0.890869H0.825233V17.6104H15.9686V0.890869Z" fill="#E53E33"/>
</g>
<g id="Group_8">
<path id="Vector_8" d="M39.3147 0.890869H24.1713V17.6104H39.3147V0.890869Z" fill="#E53E33"/>
</g>
<g id="Group_9">
<path id="Vector_9" d="M15.9686 26.4683H0.825233C0.922307 38.4707 6.60108 41.9299 9.65888 43.7119C9.9501 43.8692 13.2021 45.6512 16.0172 47.1187V26.4683H15.9686Z" fill="#E53E33"/>
</g>
<g id="Group_10">
<path id="Vector_10" d="M24.1713 26.4683V47.1187C26.9379 45.5988 30.1899 43.8692 30.5296 43.7119C33.5874 41.9299 39.2662 38.4707 39.3633 26.4683H24.1713Z" fill="#E53E33"/>
</g>
<g id="Group_11">
<path id="Vector_11" d="M29.3646 22.1705L29.6559 21.7512L29.2676 21.2271L28.8793 21.7512L29.1705 22.1705C29.1705 22.3801 29.1705 24.1621 28.1998 24.7911C28.1998 24.7911 28.5395 24.8435 28.9764 24.7911C28.9764 24.7911 29.0734 25.2628 29.2676 25.7869C29.4617 25.2628 29.5588 24.7911 29.5588 24.7911C29.9956 24.8959 30.3354 24.7911 30.3354 24.7911C29.3646 24.1097 29.3646 22.3801 29.3646 22.1705Z" fill="#2B2C2C"/>
</g>
<g id="Group_12">
<path id="Vector_12" d="M31.84 19.1302L32.1312 18.7109L31.7429 18.1868L31.3546 18.7109L31.6458 19.1302C31.6458 19.3398 31.6458 21.1219 30.6751 21.7508C30.6751 21.7508 31.0149 21.8032 31.4517 21.7508C31.4517 21.7508 31.5488 22.2225 31.7429 22.7466C31.9371 22.2225 32.0341 21.7508 32.0341 21.7508C32.471 21.8556 32.8107 21.7508 32.8107 21.7508C31.84 21.1219 31.84 19.3398 31.84 19.1302Z" fill="#2B2C2C"/>
</g>
<g id="Group_13">
<path id="Vector_13" d="M34.3154 22.1705L34.6066 21.7512L34.2183 21.2271L33.8301 21.7512L34.1213 22.1705C34.1213 22.3801 34.1213 24.1621 33.1505 24.7911C33.1505 24.7911 33.4903 24.8435 33.9271 24.7911C33.9271 24.7911 34.0242 25.2628 34.2183 25.7869C34.4125 25.2628 34.5096 24.7911 34.5096 24.7911C34.9464 24.8959 35.2862 24.7911 35.2862 24.7911C34.3154 24.1097 34.3154 22.3801 34.3154 22.1705Z" fill="#2B2C2C"/>
</g>
<g id="Group_14">
<path id="Vector_14" d="M36.7907 19.1302L37.082 18.7109L36.6937 18.1868L36.3054 18.7109L36.5966 19.1302C36.5966 19.3398 36.5966 21.1219 35.6259 21.7508C35.6259 21.7508 35.9656 21.8032 36.4025 21.7508C36.4025 21.7508 36.4995 22.2225 36.6937 22.7466C36.8878 22.2225 36.9849 21.7508 36.9849 21.7508C37.4217 21.8556 37.7615 21.7508 37.7615 21.7508C36.7907 21.1219 36.7907 19.3398 36.7907 19.1302Z" fill="#2B2C2C"/>
</g>
<g id="Group_15">
<path id="Vector_15" d="M26.8893 19.1302L27.1805 18.7109L26.7922 18.1868L26.404 18.7109L26.6952 19.1302C26.6952 19.3398 26.6952 21.1219 25.7244 21.7508C25.7244 21.7508 26.0642 21.8032 26.501 21.7508C26.501 21.7508 26.5981 22.2225 26.7922 22.7466C26.9864 22.2225 27.0835 21.7508 27.0835 21.7508C27.5203 21.8556 27.86 21.7508 27.86 21.7508C26.8893 21.1219 26.8893 19.3398 26.8893 19.1302Z" fill="#2B2C2C"/>
</g>
<g id="Group_16">
<path id="Vector_16" d="M6.01856 22.1705L6.30978 21.7512L5.92149 21.2271L5.53319 21.7512L5.82442 22.1705C5.82442 22.3801 5.82441 24.1621 4.85368 24.7911C4.85368 24.7911 5.19344 24.8435 5.63027 24.7911C5.63027 24.7911 5.72734 25.2628 5.92149 25.7869C6.11563 25.2628 6.21271 24.7911 6.21271 24.7911C6.64954 24.8959 6.98929 24.7911 6.98929 24.7911C5.97002 24.1097 5.97002 22.3801 6.01856 22.1705Z" fill="#2B2C2C"/>
</g>
<g id="Group_17">
<path id="Vector_17" d="M8.44544 19.1302L8.73666 18.7109L8.34837 18.1868L7.96007 18.7109L8.25129 19.1302C8.25129 19.3398 8.25129 21.1219 7.28056 21.7508C7.28056 21.7508 7.62032 21.8032 8.05715 21.7508C8.05715 21.7508 8.15422 22.2225 8.34837 22.7466C8.54251 22.2225 8.63959 21.7508 8.63959 21.7508C9.07641 21.8556 9.41617 21.7508 9.41617 21.7508C8.44544 21.1219 8.44544 19.3398 8.44544 19.1302Z" fill="#2B2C2C"/>
</g>
<g id="Group_18">
<path id="Vector_18" d="M10.9208 22.1705L11.212 21.7512L10.8237 21.2271L10.4354 21.7512L10.7266 22.1705C10.7266 22.3801 10.7266 24.1621 9.75589 24.7911C9.75589 24.7911 10.0956 24.8435 10.5325 24.7911C10.5325 24.7911 10.6295 25.2628 10.8237 25.7869C11.0178 25.2628 11.1149 24.7911 11.1149 24.7911C11.5517 24.8959 11.8915 24.7911 11.8915 24.7911C10.9208 24.1097 10.9208 22.3801 10.9208 22.1705Z" fill="#2B2C2C"/>
</g>
<g id="Group_19">
<path id="Vector_19" d="M13.3961 19.1302L13.6873 18.7109L13.299 18.1868L12.9107 18.7109L13.2019 19.1302C13.2019 19.3398 13.2019 21.1219 12.2312 21.7508C12.2312 21.7508 12.571 21.8032 13.0078 21.7508C13.0078 21.7508 13.1049 22.2225 13.299 22.7466C13.4932 22.2225 13.5902 21.7508 13.5902 21.7508C14.0271 21.8556 14.3668 21.7508 14.3668 21.7508C13.3961 21.1219 13.3961 19.3398 13.3961 19.1302Z" fill="#2B2C2C"/>
</g>
<g id="Group_20">
<path id="Vector_20" d="M3.54323 19.1302L3.83445 18.7109L3.44616 18.1868L3.05787 18.7109L3.34909 19.1302C3.34909 19.3398 3.34909 21.1219 2.37836 21.7508C2.37836 21.7508 2.71811 21.8032 3.15494 21.7508C3.15494 21.7508 3.25202 22.2225 3.44616 22.7466C3.64031 22.2225 3.73738 21.7508 3.73738 21.7508C4.17421 21.8556 4.51397 21.7508 4.51397 21.7508C3.4947 21.1219 3.54323 19.3398 3.54323 19.1302Z" fill="#2B2C2C"/>
</g>
<g id="Group_21">
<path id="Vector_21" d="M20.1913 28.9315L20.4825 28.5122L20.0942 27.988L19.7059 28.5122L19.9971 28.9315C19.9971 29.1411 19.9971 30.9231 19.0264 31.5521C19.0264 31.5521 19.3662 31.6045 19.803 31.5521C19.803 31.5521 19.9001 32.0238 20.0942 32.5479C20.2883 32.0238 20.3854 31.5521 20.3854 31.5521C20.8223 31.6569 21.162 31.5521 21.162 31.5521C20.1427 30.9231 20.1913 29.1411 20.1913 28.9315Z" fill="#2B2C2C"/>
</g>
<g id="Group_22">
<path id="Vector_22" d="M20.1913 37.9991L20.4825 37.5798L20.0942 37.0557L19.7059 37.5798L19.9971 37.9991C19.9971 38.2087 19.9971 39.9907 19.0264 40.6197C19.0264 40.6197 19.3662 40.6721 19.803 40.6197C19.803 40.6197 19.9001 41.0914 20.0942 41.6155C20.2883 41.0914 20.3854 40.6197 20.3854 40.6197C20.8223 40.7245 21.162 40.6197 21.162 40.6197C20.1427 39.9907 20.1913 38.2087 20.1913 37.9991Z" fill="#2B2C2C"/>
</g>
<g id="Group_23">
<path id="Vector_23" d="M22.4724 33.4918L22.7637 33.0725L22.3754 32.5483L21.9871 33.0725L22.2783 33.4918C22.2783 33.7014 22.2783 35.4834 21.3076 36.1124C21.3076 36.1124 21.6473 36.1648 22.0842 36.1124C22.0842 36.1124 22.1812 36.5841 22.3754 37.1082C22.5695 36.5841 22.6666 36.1124 22.6666 36.1124C23.1034 36.2172 23.4432 36.1124 23.4432 36.1124C22.4724 35.431 22.4724 33.649 22.4724 33.4918Z" fill="#2B2C2C"/>
</g>
<g id="Group_24">
<path id="Vector_24" d="M17.8615 33.4918L18.1528 33.0725L17.7645 32.5483L17.3762 33.0725L17.6674 33.4918C17.6674 33.7014 17.6674 35.4834 16.6967 36.1124C16.6967 36.1124 17.0364 36.1648 17.4732 36.1124C17.4732 36.1124 17.5703 36.5841 17.7645 37.1082C17.9586 36.5841 18.0557 36.1124 18.0557 36.1124C18.4925 36.2172 18.8323 36.1124 18.8323 36.1124C17.8615 35.431 17.8615 33.649 17.8615 33.4918Z" fill="#2B2C2C"/>
</g>
<g id="Group_25">
<path id="Vector_25" d="M22.4724 42.5067L22.7637 42.0874L22.3754 41.5632L21.9871 42.0874L22.2783 42.5067C22.2783 42.7163 22.2783 44.4983 21.3076 45.1273C21.3076 45.1273 21.6473 45.1797 22.0842 45.1273C22.0842 45.1273 22.1812 45.599 22.3754 46.1231C22.5695 45.599 22.6666 45.1273 22.6666 45.1273C23.1034 45.2321 23.4432 45.1273 23.4432 45.1273C22.4724 44.4983 22.4724 42.7163 22.4724 42.5067Z" fill="#2B2C2C"/>
</g>
<g id="Group_26">
<path id="Vector_26" d="M17.8615 42.5067L18.1528 42.0874L17.7645 41.5632L17.3762 42.0874L17.6674 42.5067C17.6674 42.7163 17.6674 44.4983 16.6967 45.1273C16.6967 45.1273 17.0364 45.1797 17.4732 45.1273C17.4732 45.1273 17.5703 45.599 17.7645 46.1231C17.9586 45.599 18.0557 45.1273 18.0557 45.1273C18.4925 45.2321 18.8323 45.1273 18.8323 45.1273C17.8615 44.4983 17.8615 42.7163 17.8615 42.5067Z" fill="#2B2C2C"/>
</g>
<g id="Group_27">
<path id="Vector_27" d="M20.1913 8.33331L20.4825 7.91402L20.0942 7.38989L19.7059 7.91402L19.9971 8.33331C19.9971 8.54296 19.9971 10.325 19.0264 10.9539C19.0264 10.9539 19.3662 11.0063 19.803 10.9539C19.803 10.9539 19.9001 11.4256 20.0942 11.9498C20.2883 11.4256 20.3854 10.9539 20.3854 10.9539C20.8223 11.0587 21.162 10.9539 21.162 10.9539C20.1427 10.2726 20.1913 8.54296 20.1913 8.33331Z" fill="#2B2C2C"/>
</g>
<g id="Group_28">
<path id="Vector_28" d="M22.4724 3.77375L22.7637 3.35445L22.3754 2.83032L21.9871 3.35445L22.2783 3.77375C22.2783 3.9834 22.2783 5.76542 21.3076 6.39437C21.3076 6.39437 21.6473 6.44678 22.0842 6.39437C22.0842 6.39437 22.1812 6.86608 22.3754 7.3902C22.5695 6.86608 22.6666 6.39437 22.6666 6.39437C23.1034 6.4992 23.4432 6.39437 23.4432 6.39437C22.4724 5.76542 22.4724 3.9834 22.4724 3.77375Z" fill="#2B2C2C"/>
</g>
<g id="Group_29">
<path id="Vector_29" d="M17.8615 3.77375L18.1528 3.35445L17.7645 2.83032L17.3762 3.35445L17.6674 3.77375C17.6674 3.9834 17.6674 5.76542 16.6967 6.39437C16.6967 6.39437 17.0364 6.44678 17.4732 6.39437C17.4732 6.39437 17.5703 6.86608 17.7645 7.3902C17.9586 6.86608 18.0557 6.39437 18.0557 6.39437C18.4925 6.4992 18.8323 6.39437 18.8323 6.39437C17.8615 5.76542 17.8615 3.9834 17.8615 3.77375Z" fill="#2B2C2C"/>
</g>
<g id="Group_30">
<path id="Vector_30" d="M22.4724 12.8409L22.7637 12.4216L22.3754 11.8975L21.9871 12.4216L22.2783 12.8409C22.2783 13.0505 22.2783 14.8325 21.3076 15.4615C21.3076 15.4615 21.6473 15.5139 22.0842 15.4615C22.0842 15.4615 22.1812 15.9332 22.3754 16.4573C22.5695 15.9332 22.6666 15.4615 22.6666 15.4615C23.1034 15.5663 23.4432 15.4615 23.4432 15.4615C22.4724 14.8325 22.4724 13.0505 22.4724 12.8409Z" fill="#2B2C2C"/>
</g>
<g id="Group_31">
<path id="Vector_31" d="M17.8615 12.8409L18.1528 12.4216L17.7645 11.8975L17.3762 12.4216L17.6674 12.8409C17.6674 13.0505 17.6674 14.8325 16.6967 15.4615C16.6967 15.4615 17.0364 15.5139 17.4732 15.4615C17.4732 15.4615 17.5703 15.9332 17.7645 16.4573C17.9586 15.9332 18.0557 15.4615 18.0557 15.4615C18.4925 15.5663 18.8323 15.4615 18.8323 15.4615C17.8615 14.8325 17.8615 13.0505 17.8615 12.8409Z" fill="#2B2C2C"/>
</g>
<g id="Group_32">
<path id="Vector_32" d="M12.7167 9.11973L12.7652 9.32938L12.8623 9.74869C13.0079 10.5349 13.1535 10.7445 13.5418 10.7445C13.7359 10.7445 13.9301 10.6397 13.9786 10.43L14.0757 10.168L14.2213 10.0632C14.3669 10.0632 14.4154 10.2204 14.4154 10.5873C14.4154 10.6921 14.464 10.9018 14.5125 11.2686C14.561 11.4783 14.561 11.6879 14.561 11.8976L14.464 12.3169C14.5125 12.5789 14.561 12.9458 14.561 13.1555C14.561 13.5224 14.5125 13.8369 14.4154 13.9941C14.464 14.2037 14.464 14.3086 14.464 14.5182L14.4154 14.9899C14.3669 15.3044 14.3669 15.4092 14.3669 15.4616L14.4154 15.6713L14.464 15.8285L14.4154 15.8809L14.1728 15.7761L13.8815 15.6189L13.5903 15.3568C13.3476 15.6189 13.2506 15.6189 12.6196 15.8285L12.3284 15.9333L12.1342 16.0382C12.0371 16.0382 11.9886 15.8285 11.9886 15.4616C11.9886 15.1472 12.0371 14.8851 12.0857 14.6754C11.8915 14.623 11.7459 14.5706 11.6489 14.5706L11.4547 14.623H11.4062L11.3576 14.4658L11.4547 14.1513L11.6003 13.8368L11.8915 13.4176L12.2313 13.2079L12.6681 13.1031C12.9593 13.0507 13.1049 12.8934 13.1049 12.6838C13.1049 12.4741 12.9593 12.3693 12.7167 12.2645L12.1828 12.0548L11.6974 11.7928C11.4062 11.5831 11.3576 11.5831 11.2606 11.5831L11.0664 11.8452C11.0664 12.1072 11.212 12.2645 11.4062 12.2645L11.5518 12.2121L11.6974 12.1597L11.7945 12.2645V12.3169L11.7459 12.5265C11.7459 12.7362 11.6003 12.9982 11.3576 13.3651L11.2606 13.5224C11.1635 13.9941 10.9208 14.361 10.581 14.623L10.4354 14.7279L10.3384 14.9375L10.0957 15.252L9.75593 15.5665L9.51324 15.8285L9.36763 16.0906L9.27056 16.143C9.17349 16.143 9.02788 16.0382 8.97934 15.7761L8.7852 15.5665L8.54251 15.6189L8.34837 15.6713H7.863C7.62032 15.6713 7.3291 15.7237 7.13495 15.8285L6.98934 15.8809L6.89227 15.7761L6.84373 15.6713C6.84373 15.4092 6.98934 14.9375 7.23203 14.5706C7.37764 14.3086 7.42617 14.2561 7.57178 14.1513C7.52325 13.8893 7.37764 13.732 7.23203 13.6796L6.98934 13.6272L6.94081 13.5748C6.94081 13.5224 7.03788 13.4175 7.23203 13.3127C7.47471 13.1555 7.71739 13.1031 7.96007 13.1031C8.15422 13.1031 8.3969 13.2079 8.59105 13.4176C8.9308 13.732 9.02788 13.7844 9.22202 13.7844C9.51324 13.7844 9.75593 13.5224 9.75593 13.2079C9.75593 12.9983 9.65885 12.7886 9.41617 12.4741C9.07641 11.95 8.9308 11.6879 8.9308 11.3211C8.9308 11.1114 8.97934 10.7969 9.07641 10.6921L9.22202 10.4825L9.27056 10.3252L9.02788 10.168C8.83373 10.168 8.44544 10.3252 8.10568 10.5349L7.863 10.8493L7.91154 10.9542L8.05715 11.059L8.10568 11.1114L8.05715 11.2162L7.81446 11.5831C7.66886 11.7928 7.47471 12.0024 7.28056 12.2121L7.13495 12.3693L7.03788 12.5789C6.94081 12.7886 6.69812 13.0507 6.45544 13.2079L6.2613 13.3651L6.16422 13.5748L6.01861 13.8893L5.72739 14.3086L5.38764 14.6754C5.29056 14.7803 5.19349 15.0423 5.04788 15.514C4.95081 15.8285 4.85374 15.9858 4.8052 15.9858L4.70813 15.8809C4.46544 15.5664 4.22276 15.3568 4.12569 15.3568L3.98008 15.4092L3.64032 15.5665L3.15496 15.6713C2.8152 15.7237 2.66959 15.8285 2.47545 16.0906L2.37837 16.1954L2.32984 16.0382V15.9333L2.37837 15.5665C2.42691 15.1472 2.52398 14.8851 2.62105 14.6754L2.8152 14.2562L2.86374 14.0465C2.86374 13.732 2.57252 13.4176 2.18423 13.4176L2.03862 13.3127L2.2813 12.9982C2.52398 12.7886 2.86374 12.6314 3.10642 12.6314C3.25203 12.6314 3.44618 12.6838 3.68886 12.7886L3.98008 12.8934L4.2713 12.9458C4.56252 12.9458 4.85374 12.6314 5.24203 12.0024C5.38764 11.6879 5.48471 11.4783 5.48471 11.2686C5.48471 10.9018 5.3391 10.6921 5.09642 10.6921C4.90227 10.6921 4.70813 10.7969 4.56252 10.9542L4.36837 11.3735V11.5307V11.5831L4.2713 11.7928C4.12569 11.7928 3.98008 11.5831 3.44618 10.9542C3.05788 10.4825 2.96081 10.2728 2.96081 9.74869C2.52398 9.17215 2.42691 8.91009 2.42691 8.49079V8.22873C2.13569 7.80943 2.03862 7.59978 2.03862 7.2853L2.13569 6.91842C1.99008 6.65636 1.94154 6.55154 1.89301 6.3943L1.84447 6.07982L1.65032 5.5557L1.50471 5.29364C1.50471 5.1364 1.60179 5.08398 2.03862 4.92675L1.99008 4.61227L2.03862 4.29781L2.13569 3.77368C2.18423 3.56404 2.18423 3.40679 2.18423 3.35438C2.18423 3.24955 2.18423 3.19715 2.08715 2.93508L1.99008 2.62061L1.89301 2.41096L1.99008 2.35855C2.13569 2.35855 2.47545 2.56819 2.8152 2.88267C3.54325 3.56403 3.68886 3.82608 3.78593 4.61227L3.83447 4.87433C4.17422 5.13639 4.36837 5.50329 4.36837 5.87018C4.36837 6.13224 4.2713 6.49912 4.12569 6.76118L3.88301 7.18049L3.78593 7.65219C3.78593 7.91426 3.83447 8.17632 4.02862 8.49079C4.22276 8.85768 4.41691 9.01492 4.61105 9.01492C4.95081 9.01492 5.24203 8.38597 5.24203 7.65219V7.33772V7.07566L5.29056 6.60395C5.29056 6.3943 5.3391 6.23705 5.3391 6.18464V5.87018V5.66052L5.19349 5.39845L4.90227 5.08399C4.46544 4.61228 4.2713 4.14056 4.2713 3.82608C4.2713 3.40679 4.56252 3.09231 4.95081 3.09231L5.24203 3.14473V3.0399C5.24203 2.41095 5.3391 1.99165 5.53325 1.99165H5.58178L5.82447 2.20131L6.11569 2.41096L6.21276 2.51578L6.35837 2.1489L6.55252 1.88684L6.69812 1.67719L6.74666 1.57236L6.84373 1.46753L6.94081 1.67719C6.98934 1.78202 6.98934 1.782 7.23203 1.99165L7.08642 2.09648L7.18349 2.35855L7.23203 2.46338L7.47471 2.20131L7.66886 2.09648L7.81446 2.04407L7.863 2.1489L7.96007 2.35855C8.10568 2.62061 8.15422 2.72543 8.15422 2.88267V3.0399V3.19715C8.59105 3.35438 8.73666 3.56402 8.73666 4.08815C8.73666 4.45503 8.54251 4.82193 8.25129 5.29364C8.00861 5.5557 8.00861 5.60811 8.00861 5.81776C8.00861 6.86601 8.68812 7.44255 9.853 7.44255H10.7267C11.2606 7.44255 11.6003 7.49496 12.1342 7.70461C12.7652 7.91426 12.9108 7.96667 13.1049 7.96667L13.2506 7.91426L13.3476 7.80942C13.3476 7.59978 13.0564 7.44254 11.9886 7.12807C9.853 6.49912 8.97934 5.5557 8.97934 4.03575C8.97934 2.88268 9.90154 1.93925 11.0664 1.93925C11.4547 1.93925 12.0371 2.04408 12.3284 2.20131L12.8623 2.41096L13.1535 2.46338C13.3476 2.46338 13.4447 2.30613 13.4447 1.99165L13.5903 1.72959C13.7359 1.72959 13.9786 1.93924 14.1728 2.25371C14.3669 2.56819 14.5125 2.93508 14.5125 3.14473C14.5125 3.4592 14.3669 3.66885 14.0757 3.8785C13.7845 4.35021 13.4447 4.55987 12.9593 4.55987C12.571 4.55987 12.0371 4.35022 11.1635 3.77368C10.8723 3.56404 10.7267 3.51162 10.5325 3.51162C10.2898 3.51162 10.1442 3.66885 10.1442 3.8785C10.1442 4.08815 10.2898 4.19297 10.6781 4.35021C11.212 4.55986 11.3576 4.66468 11.6003 4.87433C12.2313 4.97916 12.5225 5.1364 12.9593 5.45087C14.0757 5.81776 14.8037 6.65636 14.8037 7.59978C14.8037 8.5432 14.2213 9.17215 13.3962 9.17215C13.1049 9.22456 13.0079 9.22456 12.7167 9.11973Z" fill="#2B2C2C"/>
</g>
<g id="Group_33">
<path id="Vector_33" d="M13.9786 15.1997L13.9301 14.8852V14.7804L13.9786 14.5707V14.4135L13.8815 13.9942L13.7359 13.7845L13.5903 13.5225L13.5418 13.4177L13.6388 13.3128L13.7844 13.4177L13.9301 13.4701C14.0271 13.4701 14.0271 13.3128 14.0271 13.1032C14.0271 12.8411 14.0271 12.6839 13.9301 12.6315L13.7359 12.3694L13.5903 12.2122L13.5418 12.1074L13.6388 12.0025L13.9301 12.0549H13.9786L14.0757 11.9501V11.8977L14.0271 11.5832L13.9301 11.2688L13.833 11.1639H13.7844L13.4447 11.2163H13.3962C12.9593 11.2163 12.5225 10.8495 12.3769 10.3777L12.1342 9.48675C12.0371 9.22469 11.843 8.96262 11.5032 8.64815L11.2605 8.49092L11.0179 8.4385L10.9693 8.38608L11.1149 8.28125L11.5518 8.33367C11.6974 8.33367 11.9401 8.43849 12.2313 8.54332C12.6196 8.70055 12.8623 8.75298 13.1049 8.75298C13.7359 8.75298 14.1242 8.38608 14.1242 7.75713C14.1242 7.33783 13.9301 6.86613 13.5903 6.55165L13.1535 6.23718L13.1049 6.28959V6.44682L13.0079 6.55165L12.9108 6.28959C12.6681 5.76547 12.2798 5.39858 11.8915 5.39858L11.7945 5.45099L11.843 5.66064L11.9401 5.9227L11.9886 6.02753L11.9401 6.07995L11.6974 5.97511L11.5032 5.76547L11.3576 5.50341C11.212 5.29376 11.1149 5.18894 10.8237 5.0317L10.5325 4.87445L10.3869 4.82205L10.3384 4.87445L10.3869 5.0317L10.484 5.24134L10.4354 5.34618C10.3384 5.34618 10.1442 5.13653 9.95006 4.82205C9.80445 4.55999 9.70738 4.29793 9.70738 4.03587C9.70738 3.45933 10.0957 2.98762 10.6781 2.98762C10.9693 2.98762 11.3091 3.09244 11.6488 3.3545L12.2313 3.77381C12.4254 3.93104 12.7652 4.03587 12.9593 4.03587L13.3476 3.98345L13.4932 3.93104L13.5418 3.82621L13.4932 3.77381L13.3962 3.66897L13.1049 3.61656L12.7652 3.45933C12.4254 3.30209 12.2313 3.19726 12.1342 3.09244C11.9401 2.9352 11.7945 2.83037 11.6974 2.83037L11.5518 2.67314L11.6003 2.62073L11.7459 2.67314L12.2313 2.88279L12.7652 3.09244C13.0564 3.19726 13.4447 3.30208 13.6388 3.30208C13.8815 3.30208 14.0757 3.09244 14.0757 2.83037L13.833 2.20144L13.7359 2.14902L13.6388 2.25384V2.35867V2.5159L13.3962 2.83037L13.202 2.77796L12.3769 2.4635C11.6974 2.20144 11.3576 2.14902 11.0179 2.14902C9.9986 2.14902 9.27055 2.88279 9.27055 3.87862C9.27055 4.97928 9.9986 5.71306 11.7459 6.34201C13.4932 6.97095 13.7359 7.12819 13.7359 7.65232C13.7359 7.91438 13.4932 8.17644 13.202 8.17644L12.9108 8.12402C12.8623 8.12402 12.571 8.0192 12.0371 7.91438C11.5032 7.75714 11.0179 7.70473 10.4354 7.70473C9.17348 7.70473 8.49397 7.96678 7.86299 8.59573L7.4747 8.75298H7.37763H7.18348L6.84372 9.01504C6.69811 9.22469 6.64958 9.38192 6.64958 9.38192L6.50397 9.48675C6.4069 9.48675 6.30982 9.38191 6.16421 9.06744L5.87299 8.64815L5.63031 8.38608L5.58177 8.28125L5.63031 8.17644L5.82446 7.80955L5.92153 7.5999C6.0186 7.5999 6.0186 7.70472 6.0186 8.01919L6.11568 8.38608L6.26129 8.70056L6.35836 8.75298C6.50397 8.75298 6.64958 8.43849 6.69812 8.07161C6.74665 7.75713 6.74665 7.70473 6.84372 7.70473L6.89226 7.75713L6.98933 8.01919L7.13494 8.22885L7.28055 8.33367C7.37763 8.33367 7.42616 8.28125 7.42616 8.01919V7.86196L7.37763 7.65232V7.49507L7.4747 7.33784L7.57177 7.39025L7.71738 7.54748L7.96006 7.70473L8.15421 7.5999L8.05714 7.28542L7.96006 7.12819C7.86299 6.91854 7.76592 6.81371 7.66885 6.81371H7.52324L7.37763 6.86613L7.28055 6.91855L7.23202 6.86613C7.23202 6.76131 7.32909 6.55165 7.4747 6.28959C7.57177 6.13235 7.66885 5.76546 7.66885 5.18893C7.71738 4.45516 7.81446 3.98345 7.91153 3.98345L8.0086 4.1931V4.40274V4.55999L8.05714 4.76964C8.15421 4.76964 8.29982 4.6124 8.39689 4.29793L8.44543 4.03587V3.98345L8.20275 3.45933L7.96006 3.3545L7.86299 3.30208V3.14485V2.98762L7.81446 2.83037L7.76592 2.67314L7.71738 2.5159C7.42616 2.67313 7.28055 2.77797 7.18348 2.93521L6.98933 3.14485L6.9408 3.09244L6.98933 2.88279V2.83037C6.98933 2.5159 6.84373 2.25384 6.55251 2.04419L6.45543 2.14902L6.35836 2.30625L6.21275 2.5159L6.06714 2.77796L6.0186 2.93521V2.98762L5.97007 3.14485H5.92153L5.82446 2.98762L5.67885 2.83037L5.4847 2.67314L5.38763 2.56831L5.33909 2.67314L5.29056 2.88279V3.09244V3.30208V3.3545L5.19348 3.51174L5.04787 3.45933L4.85373 3.40691C4.65958 3.40691 4.51397 3.56416 4.51397 3.77381C4.51397 4.03587 4.61104 4.29793 4.70812 4.50758L4.85373 4.76964L4.99934 4.87445L5.04787 4.55999L4.99934 4.29793V4.1931L5.09641 4.03587C5.19348 4.03587 5.19348 4.14068 5.24202 4.35033L5.33909 4.87445L5.43617 5.50341L5.58177 6.07995C5.67885 6.34201 5.77592 6.49924 5.82446 6.55165L5.97007 6.81371L5.92153 6.86613L5.82446 6.81371H5.63031H5.53324C5.33909 6.81371 5.29056 7.02337 5.29056 7.91438C5.29056 8.49091 5.38763 9.22468 5.53324 9.59156L5.82446 10.3253L5.87299 10.6922C5.87299 11.6881 4.61104 13.3128 3.25202 14.0466C2.76666 14.3087 2.57251 14.5707 2.57251 15.1997V15.3569C2.76666 15.2521 2.86373 15.1997 3.00934 15.1473C3.39763 15.0424 3.44617 14.99 3.54324 14.7804L3.59178 14.6231C3.59178 14.5707 3.64031 14.5183 3.93153 14.3611L4.12568 14.2039L4.27129 14.0466L4.31982 14.099V14.1514L4.17422 14.5707V14.6756C4.17422 14.99 4.31982 15.1997 4.61104 15.3569C4.65958 15.0424 4.70812 14.9376 4.75665 14.7804L4.99934 14.4135C5.09641 14.2563 5.09641 14.099 5.09641 13.837L5.04787 13.4177V13.3128L5.14495 13.208L5.24202 13.2604L5.29056 13.5225L5.43617 13.6273C5.58177 13.6273 5.72738 13.4701 5.87299 13.1556L5.97007 12.7887V12.5791L5.92153 12.3694V12.317L6.0186 12.1598H6.06714L6.16421 12.4742L6.30982 12.6315L6.64958 12.2646C6.74665 12.1074 6.74665 11.8977 6.74665 11.6881C6.74665 11.3736 6.79519 11.3212 6.89226 11.3212L6.9408 11.3736L6.98933 11.5308L7.08641 11.6357L7.37763 11.2688L7.42616 11.1639L7.32909 10.9543L7.18348 10.6398C7.18348 10.4826 7.23202 10.3778 7.32909 10.1681L7.4747 9.85362C7.62031 9.48674 7.71738 9.43433 7.76592 9.43433L7.86299 9.53916L7.81446 9.64398L7.76592 9.80122L7.86299 9.90604L8.10567 9.80122C8.15421 9.80122 8.25128 9.7488 8.44543 9.64398L8.88226 9.48675L9.12494 9.43433L9.36762 9.48675L9.65884 9.53916L9.90153 9.3295L9.70738 8.91021L9.65884 8.80538V8.75298L9.70738 8.70056C9.80445 8.70056 9.9986 8.91021 10.1927 9.22469C11.3091 11.1115 11.6974 11.5832 12.4254 11.7929C13.202 12.0549 13.3962 12.2122 13.3962 12.7363C13.3962 12.9984 13.2505 13.3129 13.0079 13.7321C12.474 14.5707 12.3284 14.9376 12.3284 15.4617V15.5666L12.474 15.5142L12.6681 15.4093L13.0079 15.3569L13.202 15.0949V15.0425L13.1535 14.728V14.6756L13.2505 14.3611L13.2991 14.3087L13.3962 14.4135L13.5903 14.8852C13.5903 14.99 13.6874 15.0949 13.9786 15.1997Z" fill="#FFDE26"/>
</g>
<g id="Group_34">
<path id="Vector_34" d="M3.64027 5.13647L3.49466 5.39854L3.44612 5.6606C3.39758 5.92266 3.39758 5.92266 3.39758 5.97508L3.54319 6.34197L3.83441 5.97508L3.88295 5.6606L3.83441 5.34614L3.64027 5.13647Z" fill="#FFDE26"/>
</g>
<g id="Group_35">
<path id="Vector_35" d="M2.57252 3.1447L2.76667 3.35435C3.05788 3.66882 3.20349 4.19294 3.20349 4.92672C3.20349 5.08395 3.20349 5.18878 3.15496 5.66049C3.15496 5.87014 3.10642 6.07979 3.10642 6.23703C3.10642 7.96663 3.64032 9.27695 4.31983 9.27695C4.51398 9.27695 4.65959 9.17212 4.85374 8.85764L4.95081 8.75283L4.99935 8.85764L5.04788 9.17212V9.43418L5.09642 9.74866L5.14496 10.0107V10.0631L5.04788 10.168L4.8052 10.2204L4.46544 10.3776C4.2713 10.4824 4.17422 10.5872 4.12569 10.6397L3.98008 10.9541L3.88301 11.0066C3.78593 11.0066 3.68886 10.8493 3.54325 10.6397C3.44618 10.43 3.3491 10.2728 3.3491 10.168L3.44618 10.1155H3.49471H3.64032H3.7374H3.83447L3.93154 10.0107L3.88301 9.90589L3.30057 9.64383C3.10642 9.539 2.96081 9.38177 2.86374 9.17212C2.71813 8.85765 2.62106 8.64799 2.62106 8.54317L2.71813 8.38594L2.8152 8.43835L2.96081 8.49077L3.05788 8.38594L2.96081 8.2287C2.47545 7.86182 2.18423 7.44251 2.18423 7.02321L2.2813 6.86598H2.37837L2.52398 6.9184L2.62106 6.81356L2.52398 6.70873L2.32984 6.60392L2.13569 6.39427C2.13569 6.34186 2.03862 6.23703 1.89301 5.97496L1.69886 5.60809L1.60179 5.39843L1.50471 5.29361L1.89301 5.18878C2.08715 5.18878 2.18423 5.2936 2.32984 5.66049C2.42691 5.87014 2.47545 6.02738 2.52398 6.02738L2.57252 5.87015L2.52398 5.45084L2.47545 5.13636L2.42691 4.92672L2.2813 4.8219L2.18423 4.66466L2.08715 4.35018L2.13569 4.08812C2.2813 3.56399 2.2813 3.35435 2.2813 3.19712V3.09229L2.57252 3.1447Z" fill="#FFDE26"/>
</g>
<g id="Group_36">
<path id="Vector_36" d="M4.07705 13.1553L3.68875 13.0506L3.44607 12.9459C3.25193 12.8412 3.05778 12.7888 2.96071 12.7888C2.76656 12.7888 2.62095 12.8412 2.4268 12.9982L2.52388 13.1029L2.76656 13.3123L3.00924 13.5217L3.20339 13.6264C3.54314 13.6264 3.73729 13.4693 4.07705 13.1553Z" fill="#FFDE26"/>
</g>
<g id="Group_37">
<path id="Vector_37" d="M9.02788 15.6713L9.27056 15.3044C9.61032 14.9899 9.80446 14.7279 9.80446 14.5182V14.361V14.2037L9.90153 13.9417L9.99861 13.9941L10.0471 14.1513L10.1442 14.2037L10.3384 14.0465L10.484 13.8368L10.581 13.5748L10.5325 13.4175L10.4354 13.2079L10.3869 12.9982L10.484 12.841L10.581 12.8934L10.6781 13.0507L10.7752 13.1031L10.9208 12.9982L11.0179 12.7886L11.0664 12.6838L10.9693 12.5789L10.8237 12.4741C10.581 12.3693 10.4354 12.0024 10.4354 11.5831L10.484 11.4259L10.581 11.2162L10.6296 11.0066L10.484 10.5873L10.3384 10.2728C10.2413 10.0632 10.2413 10.0107 10.1442 10.0107H10.0957L9.99861 10.0632L9.853 10.168L9.70739 10.3776L9.51324 10.4824L9.3191 11.0066C9.3191 11.3735 9.36763 11.4783 9.80446 12.2645C9.99861 12.5789 10.0471 12.841 10.0471 13.0507C10.0471 13.6272 9.56178 14.0465 8.63959 14.2561L8.05715 14.4134C7.62032 14.5182 7.37764 14.8327 7.28056 15.4092C7.47471 15.3044 7.52324 15.3044 7.863 15.3044H8.05715H8.10568L8.3969 15.1471L8.83373 14.7803L9.02788 14.6754L9.17349 14.5706H9.22202L9.27056 14.623L9.12495 14.8851C8.97934 15.0423 8.9308 15.1996 8.9308 15.4092L9.02788 15.6713Z" fill="#FFDE26"/>
</g>
<g id="Group_38">
<path id="Vector_38" d="M7.42615 13.5223L7.81444 13.8887L8.05712 14.098L8.25127 14.0457H8.34834C8.54249 13.9933 8.63956 13.941 8.63956 13.8887L8.59102 13.784L8.44541 13.627L8.2998 13.47L7.86298 13.313C7.71737 13.3653 7.62029 13.3653 7.42615 13.5223Z" fill="#FFDE26"/>
</g>
<g id="Group_39">
<path id="Vector_39" d="M11.6003 14.2553H11.6974H11.7944H11.8915H11.9401C12.2313 14.2553 12.5225 13.9936 12.5225 13.732L12.2798 13.575C11.9401 13.575 11.7459 13.7843 11.6003 14.2553Z" fill="#FFDE26"/>
</g>
<g id="Group_40">
<path id="Vector_40" d="M6.79516 4.66478L6.94077 4.87443C6.98931 4.87443 7.03785 4.7172 7.18345 4.45513C7.3776 4.14066 7.52321 3.77377 7.52321 3.61653L7.47467 3.51172L7.32906 3.66895C7.23199 3.77377 7.13492 3.82619 6.89223 3.93101L6.69809 4.14066V4.24549L6.74663 4.45513L6.79516 4.66478Z" fill="#2F2F27"/>
</g>
<g id="Group_41">
<path id="Vector_41" d="M6.01858 3.93086L6.21273 4.03569L6.3098 4.19292V4.29775V4.61221C6.3098 4.87427 6.11565 4.87427 6.06712 4.87427L5.92151 4.71704L5.63029 4.35015C5.53321 4.24533 5.48468 3.98327 5.43614 3.72121V3.6688L5.53321 3.56396L5.67882 3.61638L6.01858 3.93086Z" fill="#2F2F27"/>
</g>
<g id="Group_42">
<path id="Vector_42" d="M6.50394 5.39844H6.45541H6.3098L6.16419 5.29363L5.97004 5.24121L5.77589 5.39844C5.77589 5.50327 5.82443 5.71292 5.9215 6.0274L6.06711 6.44669C6.21272 6.81357 6.35833 7.02323 6.55248 7.02323C6.69809 7.02323 6.74663 6.86599 6.8437 6.55152C7.08638 5.87016 7.23199 5.76533 7.23199 5.50327L7.03785 5.29363L6.89223 5.24121L6.69809 5.39844H6.50394Z" fill="#2F2F27"/>
</g>
<g id="Group_43">
<path id="Vector_43" d="M6.69804 5.76538L6.5039 5.81773H6.30975H6.26122V5.92241L6.30975 6.2365L6.35829 6.55058L6.55244 6.75997L6.74658 6.49823L6.79512 6.18415L6.84365 5.87008L6.79512 5.76538H6.69804Z" fill="#FFDE26"/>
</g>
<g id="Group_44">
<path id="Vector_44" d="M36.6937 9.11973L36.7423 9.32938L36.8394 9.74869C36.985 10.5349 37.1306 10.7445 37.4703 10.7445C37.6645 10.7445 37.8586 10.6397 37.9072 10.43L38.0042 10.168L38.1013 10.0632C38.2469 10.0632 38.2954 10.2204 38.344 10.5873C38.344 10.6921 38.3925 10.9542 38.4411 11.2686C38.4896 11.4783 38.4896 11.7404 38.4896 11.8976L38.3925 12.3169L38.4411 12.4741C38.4896 12.7362 38.4896 12.841 38.4896 12.9982C38.4896 13.5748 38.4411 13.7844 38.344 13.9941C38.3925 14.2037 38.3925 14.3086 38.3925 14.4658C38.3925 14.5706 38.3925 14.7279 38.344 14.9375L38.2954 15.3568V15.6189L38.344 15.7761L38.2954 15.8285L38.0528 15.7237L37.7615 15.5665L37.4703 15.3044C37.2276 15.5665 37.1791 15.5664 36.8879 15.6713C36.4511 15.7761 36.3054 15.8809 36.2084 15.9333L36.0142 16.0382C35.9172 16.0382 35.8686 15.8285 35.8686 15.514C35.8686 15.0947 35.9172 14.8327 35.9657 14.6754C35.723 14.5706 35.5774 14.5706 35.4803 14.5706L35.2862 14.623H35.2376L35.1891 14.4658C35.1891 14.3086 35.2862 14.0465 35.3833 13.8368C35.5289 13.5224 35.8201 13.2603 36.0142 13.2079L36.4996 13.1031C36.7908 13.0507 36.9364 12.8934 36.9364 12.6838C36.9364 12.4741 36.8394 12.3693 36.5481 12.2645L36.0142 12.0548L35.4803 11.7928L35.1891 11.6355L35.0435 11.5831L34.8494 11.8452C34.8494 12.0548 34.995 12.2645 35.2376 12.2645L35.3833 12.2121L35.4803 12.1597L35.5774 12.3169C35.5774 12.5789 35.4318 12.9983 35.2862 13.2079L35.1406 13.4176L35.0435 13.5748C34.995 13.9417 34.6552 14.4658 34.364 14.6754L34.2184 14.7803L34.1213 14.9899L33.8786 15.3044L33.5389 15.6189L33.2962 15.8809L33.1506 16.143L33.0535 16.1954C32.9564 16.1954 32.8108 16.0382 32.7623 15.8285L32.5681 15.6189L32.3255 15.6713L32.1313 15.7237H31.6945C31.4518 15.7237 31.112 15.7761 30.9664 15.8809L30.8208 15.9333L30.7237 15.7237C30.7237 15.3044 31.015 14.623 31.4518 14.2037C31.4033 13.9417 31.2577 13.7844 31.112 13.732L30.8694 13.6796L30.8208 13.6272C30.8208 13.5224 30.9179 13.47 31.112 13.3651C31.5003 13.1555 31.5974 13.1555 31.7916 13.1555C32.0342 13.1555 32.2284 13.2603 32.4711 13.47C32.8108 13.7844 32.9079 13.8368 33.102 13.8368C33.3933 13.8368 33.6359 13.5748 33.6359 13.2603C33.6359 13.0507 33.5389 12.841 33.2962 12.5265C32.9564 12.0548 32.8108 11.7404 32.8108 11.3211C32.8108 11.059 32.8594 10.9018 33.102 10.5349L33.1506 10.3776L32.9079 10.2204C32.7623 10.2204 32.6167 10.2728 32.374 10.3776C31.9857 10.5873 31.743 10.7445 31.743 10.8493L31.7916 10.9542L31.9372 11.059L31.9857 11.1114L31.9372 11.2162C31.9372 11.2686 31.8401 11.3735 31.6945 11.5831C31.5003 11.8452 31.3547 12.0548 31.1606 12.2121L31.015 12.3693L30.9179 12.5789C30.8208 12.7362 30.5781 13.0507 30.384 13.2079L30.1898 13.3651L30.0928 13.5748C29.9472 13.8368 29.753 14.1513 29.6074 14.3086L29.2677 14.6754C29.1706 14.7803 29.025 15.0947 28.8794 15.514C28.7823 15.8285 28.6852 15.9858 28.6367 15.9858L28.5396 15.8809C28.2969 15.5664 28.0542 15.3568 27.9572 15.3568L27.8116 15.4092L27.4718 15.5665L26.9864 15.6713C26.5981 15.7761 26.4525 15.8285 26.2584 16.0906L26.1613 16.1954L26.0642 16.0382V15.9333C26.0642 15.9333 26.1128 15.7761 26.1128 15.5665C26.1613 15.1472 26.2584 14.8327 26.3555 14.6754L26.5981 14.2562L26.6467 14.0465C26.6467 13.732 26.3555 13.47 25.9672 13.4176L25.8216 13.3127L26.0642 12.9982C26.3555 12.7886 26.6467 12.6314 26.8408 12.6314C26.9864 12.6314 27.1806 12.6838 27.4233 12.7886L27.7145 12.8934L28.0057 12.9458C28.2969 12.9458 28.5881 12.6314 28.9279 12.0024C29.0735 11.6879 29.1706 11.4783 29.1706 11.2686C29.1706 10.9018 29.025 10.6921 28.7823 10.6921C28.5881 10.6921 28.394 10.7969 28.2484 10.9542L28.0542 11.3735V11.5307V11.5831L27.9572 11.7403C27.8601 11.7403 27.763 11.6355 27.5203 11.3735L27.1806 10.9017C26.7923 10.43 26.6952 10.2204 26.6952 9.69627C26.2584 9.11974 26.1613 8.75285 26.1613 8.43838V8.17632C25.8701 7.75702 25.773 7.59977 25.773 7.23289L25.8701 6.86601C25.7245 6.60395 25.6759 6.49912 25.6274 6.34189L25.5789 6.02741L25.3847 5.50329L25.2391 5.24122C25.2391 5.08399 25.3847 4.97916 25.676 4.92675L25.773 4.87433L25.7245 4.55987L25.773 4.24539L25.8701 3.72127L25.9186 3.24956C25.9186 3.14474 25.9186 3.0399 25.8216 2.83025L25.676 2.51578L25.5789 2.35855L25.676 2.25371L25.8216 2.30613C26.2584 2.56819 26.7438 2.98749 27.0835 3.35438C27.3747 3.72126 27.4718 3.98333 27.5203 4.76952C27.9086 5.08399 28.0542 5.34605 28.0542 5.81776C28.0542 6.07982 27.9572 6.34189 27.8116 6.65636C27.6659 6.91842 27.5689 7.07566 27.5689 7.07566L27.4718 7.54736C27.4718 7.80942 27.5203 8.01908 27.7145 8.38596C27.9086 8.75285 28.0542 8.91009 28.2969 8.91009C28.6367 8.91009 28.9279 8.28114 28.9279 7.59978V7.44255V7.07566L28.9764 6.76118V6.34189L29.025 6.02741V5.81776C29.025 5.66053 28.9764 5.66052 28.5881 5.18881C28.1513 4.66468 27.9572 4.24539 27.9572 3.8785C27.9572 3.51161 28.2484 3.19715 28.5881 3.19715L28.9279 3.14473V2.9875V2.67302L29.025 2.30613C29.0735 2.04407 29.122 1.99165 29.2191 1.99165H29.2677L29.5103 2.20131L29.8016 2.41096L29.8986 2.51578L30.0442 2.1489L30.2384 1.88684L30.384 1.67719L30.4811 1.57236L30.5781 1.46753L30.6752 1.67719L30.7723 1.83442L30.9179 1.99165C31.0635 2.09648 31.1606 2.30613 31.2091 2.56819L31.4518 2.30613L31.6459 2.20131L31.7916 2.1489L31.8401 2.25371L31.9372 2.46338C32.0828 2.72544 32.1313 2.77785 32.1313 2.9875V3.09231V3.24956C32.5681 3.35439 32.7137 3.61644 32.7137 4.14056C32.7137 4.50745 32.5681 4.87434 32.2284 5.34605C31.9857 5.60812 31.9857 5.71293 31.9857 5.92258C31.9857 6.91841 32.6652 7.49495 33.8301 7.49495H34.6552C35.1891 7.49495 35.5289 7.54736 36.0628 7.75701C36.6452 7.96666 36.8394 8.01907 37.0335 8.01907L37.2762 7.86184C37.2762 7.65219 36.985 7.49496 35.9172 7.18049C33.7816 6.55154 32.9079 5.6081 32.9079 4.08815C32.9079 2.93507 33.8301 1.99165 34.995 1.99165C35.3833 1.99165 35.9657 2.09648 36.2569 2.25371L36.7908 2.46338L37.082 2.51578C37.2762 2.51578 37.3247 2.41095 37.3733 2.04407L37.5189 1.78201C37.6645 1.78201 37.9072 1.99166 38.1013 2.30613C38.2954 2.6206 38.4411 2.9875 38.4411 3.24956C38.4411 3.56404 38.2954 3.77368 38.0042 3.98333C37.713 4.45504 37.3733 4.66468 36.8879 4.66468C36.4996 4.66468 35.9172 4.40262 35.092 3.8785C34.8008 3.66885 34.6552 3.61644 34.4611 3.61644C34.2184 3.61644 34.0728 3.77368 34.0728 3.98333C34.0728 4.19298 34.2184 4.2978 34.6067 4.45504C35.2376 4.66469 35.3347 4.76951 35.5289 4.97916C36.2084 5.08399 36.4511 5.24123 36.8879 5.5557C38.0528 5.975 38.7323 6.76117 38.7323 7.75701C38.7323 8.64802 38.1498 9.32938 37.3733 9.32938C37.082 9.22455 36.985 9.22456 36.6937 9.11973Z" fill="#2B2C2C"/>
</g>
<g id="Group_45">
<path id="Vector_45" d="M37.9556 15.1994L37.9071 14.9373V14.7277C37.9556 14.4656 37.9556 14.3608 37.9556 14.2035L37.8586 13.9415L37.7129 13.7318L37.5673 13.3649L37.6159 13.2601H37.6644L37.7615 13.3125L37.9071 13.3649C38.0042 13.3649 38.0042 13.2601 38.0042 12.998C38.0042 12.6312 37.9556 12.4739 37.7615 12.3167L37.5673 12.1595L37.5188 12.0546L37.6159 11.9498H37.7615L37.9071 12.0022H37.9556L38.0042 11.8974V11.845L37.9556 11.5305C37.9071 11.216 37.8586 11.1112 37.7615 11.1112H37.7129L37.3732 11.1636H37.3247C36.9364 11.1636 36.451 10.7443 36.3539 10.325L36.2083 9.43401C36.1112 9.17195 35.9171 8.85747 35.5773 8.59541L35.2861 8.43818L35.0434 8.38577L34.9464 8.33335L35.092 8.22854C35.4317 8.22854 35.7715 8.28095 36.2083 8.4906C36.6451 8.64783 36.8393 8.70024 37.082 8.70024C37.7129 8.70024 38.1012 8.33335 38.1012 7.75681C38.1012 7.44234 38.0042 7.07546 37.8586 6.8134C37.7129 6.60375 37.5188 6.39409 37.2761 6.18444L37.179 6.13204L37.1305 6.18444V6.34169L37.0334 6.4465L36.7907 6.18444C36.5481 5.66032 36.1598 5.29344 35.7715 5.29344L35.6259 5.39826L35.6744 5.60792L35.7715 5.86998L35.82 5.9748L35.7715 6.02721L35.5773 5.92238L35.3832 5.71273L35.2376 5.45067C35.092 5.24102 34.9464 5.08379 34.7037 4.97896L34.3639 4.82173L34.2183 4.76932L34.1698 4.82173L34.2183 4.97896L34.3154 5.24103L34.2668 5.34586C34.1698 5.34586 34.0242 5.18862 33.7815 4.82173C33.6359 4.55967 33.5388 4.29761 33.5388 4.03555C33.5388 3.45901 33.9756 2.9873 34.5095 2.9873C34.8007 2.9873 35.1405 3.09212 35.4803 3.35418L36.1112 3.77349C36.3539 3.93072 36.6451 4.03555 36.7907 4.03555C36.8878 4.03555 36.9364 4.03555 37.1305 3.98313L37.2761 3.93072L37.3247 3.82589L37.2276 3.72107C36.9364 3.66866 36.3539 3.45901 35.9656 3.19695C35.7229 3.03971 35.5773 2.93489 35.5288 2.93489L35.3347 2.77764L35.3832 2.72524H35.4803L36.0627 2.93489L36.6937 3.14453C36.9364 3.24936 37.3732 3.35418 37.5673 3.35418C37.81 3.35418 38.0042 3.19695 38.0042 2.93489L37.9071 2.56799L37.6644 2.25352L37.5673 2.41076V2.46318V2.62041L37.3247 2.93489L37.1305 2.88247L36.3054 2.56799C35.5773 2.30593 35.2861 2.25352 34.9464 2.25352C33.9271 2.25352 33.1505 2.9873 33.1505 3.98313C33.1505 5.08379 33.8786 5.76514 35.6744 6.4465C37.4217 7.12786 37.6644 7.23269 37.6644 7.75681C37.6644 8.01887 37.4217 8.28094 37.082 8.28094L36.7907 8.22854C36.6937 8.22854 36.4025 8.1237 35.9171 8.01887C35.3832 7.86164 34.9464 7.80923 34.3154 7.80923C33.0534 7.80923 32.4225 8.01888 31.7429 8.70024L31.3547 8.85747H31.2576H31.0634L30.7237 9.11954L30.5295 9.48643L30.3839 9.59124C30.2383 9.59124 30.1898 9.48643 30.0442 9.17195L29.8015 8.75266L29.5103 8.4906L29.4617 8.38577L29.5103 8.22854L29.6073 8.01887L29.6559 7.86164V7.75681L29.7529 7.70441C29.85 7.70441 29.85 7.75682 29.85 8.1237L29.9471 8.4906L30.0927 8.80506L30.1898 8.85747C30.3354 8.85747 30.481 8.54301 30.5295 8.17612C30.5781 7.86165 30.5781 7.80923 30.6751 7.80923C30.7237 7.80923 30.7722 7.86164 30.8693 8.07129L31.0149 8.28094L31.1605 8.38577C31.2576 8.38577 31.3061 8.33335 31.3061 8.07129V7.91406L31.2576 7.70441V7.54717L31.3547 7.38994L31.4517 7.44235L31.5973 7.59958L31.84 7.75681L32.0342 7.59958L31.8886 7.2851L31.7915 7.12787C31.6944 6.91822 31.6459 6.8134 31.5003 6.8134H31.3547L31.209 6.86581L31.112 6.91823L31.0634 6.86581C31.0634 6.76099 31.1605 6.55133 31.2576 6.28927C31.3547 6.13204 31.4032 5.76515 31.5003 5.18861L31.5488 4.55967C31.5973 4.14037 31.6459 4.03555 31.6944 4.03555L31.7429 4.08795L31.7915 4.29761V4.45484L31.84 4.82173L32.0342 4.61207L32.1798 4.35001L32.2283 3.98313C32.2283 3.66866 32.0827 3.51142 31.6944 3.40659L31.5973 3.35418V3.24936V3.0397L31.5488 2.88247L31.5003 2.72524L31.4517 2.56799L31.3547 2.62041C31.112 2.77765 31.0149 2.83007 30.9178 2.9873L30.7237 3.19695L30.6751 3.14453L30.7237 2.88247V2.83006C30.7237 2.51558 30.5781 2.25352 30.2869 1.99146L30.3839 2.09629L30.2869 2.25352L30.1412 2.46318L29.9956 2.88247V2.93489V2.9873L29.9471 3.14453H29.8986L29.8015 2.9873L29.6559 2.83006L29.4132 2.67283L29.3161 2.56799C29.1705 2.88247 29.1705 2.88248 29.1705 3.24936V3.35418L29.0734 3.56383L28.9278 3.51143L28.7337 3.45901C28.5395 3.45901 28.3939 3.61624 28.3939 3.8783C28.3939 4.14036 28.4425 4.29761 28.5881 4.55967L28.8793 4.87413L28.9278 4.55967L28.8793 4.29761V4.19278L28.9764 4.03555C29.0249 4.03555 29.0734 4.14036 29.122 4.35001L29.219 4.87413L29.3161 5.50309L29.4617 6.07963C29.5588 6.34169 29.6559 6.49892 29.6559 6.55133L29.8015 6.8134L29.7529 6.86581L29.6559 6.8134L29.5103 6.76098H29.4132C29.219 6.76098 29.1705 6.97063 29.1705 7.86164C29.1705 8.43818 29.2676 9.22436 29.4132 9.59124L29.7044 10.325L29.7529 10.6919C29.7529 11.6877 28.491 13.3125 27.132 14.0463C26.5981 14.3084 26.4525 14.6228 26.4039 15.3566C26.6466 15.2518 26.6951 15.1994 26.8408 15.147C27.229 15.0421 27.2776 14.9897 27.3747 14.7801L27.4232 14.6228C27.4232 14.5704 27.4717 14.518 27.763 14.3608L27.9571 14.2035L28.1027 14.0463L28.1512 14.0987L28.0056 14.518V14.6228C28.0056 14.9373 28.1512 15.147 28.4425 15.3042L28.491 15.147C28.5395 14.9373 28.5881 14.7801 28.6366 14.7277L28.8793 14.3608C28.9764 14.2035 28.9764 14.1511 28.9764 13.7842V13.3649V13.2601L29.0734 13.1553L29.1705 13.2077L29.219 13.4698L29.3647 13.5746C29.5103 13.5746 29.6559 13.4174 29.8015 13.1029L29.8986 12.7884L29.85 12.3691V12.2643L29.9471 12.1595H29.9956L30.0927 12.4739L30.2383 12.6312C30.4325 12.6312 30.6266 12.2119 30.6751 11.7402C30.6751 11.4257 30.7237 11.3209 30.8208 11.3209L30.8693 11.3733L30.9178 11.5305L31.0149 11.6353L31.209 11.4781L31.3061 11.3209L31.3547 11.1636L31.2576 11.0064L31.112 10.6919C31.112 10.4823 31.209 10.2726 31.4032 9.85331C31.5973 9.48642 31.6459 9.43401 31.6944 9.43401L31.7915 9.53884L31.7429 9.64366L31.6944 9.80091L31.7915 9.90572L32.0342 9.80091L32.3739 9.64366C32.6166 9.53883 32.7622 9.48643 32.8108 9.48643L33.0534 9.43401H33.2961L33.5873 9.48643L33.7815 9.27678L33.6844 9.01472L33.5873 8.80506L33.4903 8.70024V8.64783L33.5388 8.59541C33.6359 8.59541 33.83 8.80506 34.0242 9.11954C35.0434 10.9016 35.5288 11.4781 36.2568 11.6877C37.0334 11.9498 37.2276 12.107 37.2276 12.6312C37.2276 12.8932 37.082 13.2077 36.8393 13.627C36.3054 14.4132 36.1598 14.8325 36.1598 15.3566V15.4614L36.3054 15.409L36.4995 15.3042L36.8393 15.2518L37.0334 14.9373V14.8849V14.5704V14.518L37.2276 14.2035L37.3247 14.3084L37.5188 14.7801C37.5673 14.9897 37.7129 15.0945 37.9556 15.1994Z" fill="#FFDE26"/>
</g>
<g id="Group_46">
<path id="Vector_46" d="M27.4232 5.71305V5.9227V6.07994C27.4232 6.28959 27.4717 6.39442 27.5202 6.39442L27.8114 6.02753L27.86 5.66063L27.8114 5.39857L27.6173 5.18893C27.4717 5.13651 27.4232 5.29375 27.4232 5.71305Z" fill="#FFDE26"/>
</g>
<g id="Group_47">
<path id="Vector_47" d="M26.5495 3.14487L26.7436 3.35452C26.9863 3.61658 27.1805 4.19312 27.1805 4.76966V4.97931L27.1319 5.60826V6.13238C27.1319 7.96682 27.6173 9.17229 28.3453 9.17229C28.5395 9.17229 28.7336 9.01506 28.8792 8.70059L28.9763 8.59575L29.0248 8.70059L29.0734 9.01506V9.27712L29.1219 9.59159L29.1705 9.85365C29.1705 10.0109 29.1219 10.0109 28.8307 10.0633L28.4909 10.2205C28.2968 10.3778 28.1512 10.4302 28.1512 10.4826L28.0056 10.7971L27.9085 10.8495C27.8114 10.8495 27.7144 10.7447 27.5687 10.4826C27.4231 10.2205 27.3746 10.1157 27.3746 10.0109L27.4717 9.95848H27.5202H27.6658H27.7629H27.86L27.957 9.85365L27.9085 9.80125L27.3261 9.53919C27.1805 9.48677 27.0348 9.32952 26.8892 9.06746C26.7436 8.8054 26.6466 8.59576 26.6466 8.43852L26.7436 8.28128L26.8407 8.33369L26.9863 8.38611L27.0348 8.33369L27.0834 8.28128L26.9863 8.12405C26.5009 7.75716 26.2097 7.28546 26.2097 6.91857L26.2583 6.76132H26.3553L26.5495 6.81374L26.6466 6.70891L26.5495 6.60409C26.2097 6.44685 26.1612 6.34203 25.967 5.81791C25.8214 5.45102 25.7244 5.29379 25.5788 5.08414L25.967 4.97931C26.1612 4.97931 26.2583 5.08413 26.3553 5.45101C26.4524 5.66066 26.5009 5.81791 26.5495 5.81791L26.598 5.66066L26.5495 5.24137L26.5009 4.92689L26.4524 4.71724L26.3068 4.61241L26.1127 4.14071L26.1612 3.87864L26.2583 3.56417C26.3068 3.35452 26.3553 3.09247 26.3553 2.98764V2.88281L26.5495 3.14487Z" fill="#FFDE26"/>
</g>
<g id="Group_48">
<path id="Vector_48" d="M28.0542 13.1553C27.763 13.1029 27.763 13.1029 27.4232 12.9459C27.2291 12.8412 27.0834 12.7888 26.9378 12.7888C26.7437 12.7888 26.5981 12.8412 26.4039 12.9982L26.501 13.1029L26.7437 13.3123L26.9864 13.5217L27.1805 13.6264C27.5203 13.6264 27.7144 13.4693 28.0542 13.1553Z" fill="#FFDE26"/>
</g>
<g id="Group_49">
<path id="Vector_49" d="M33.0049 15.6711L33.2476 15.3042C33.5873 14.9897 33.7815 14.7277 33.7815 14.518V14.3608V14.2036L33.8785 13.9415L33.9756 13.9939L34.0241 14.1511L34.1212 14.2036C34.2183 14.2036 34.2668 14.1511 34.461 13.8367L34.558 13.5746L34.5095 13.4174L34.4124 13.2077L34.3639 12.9981L34.461 12.8408L34.558 12.8933L34.6551 13.0505L34.7037 13.1029L34.8493 12.9981L34.9463 12.7884L34.9949 12.6836L34.8978 12.5788L34.7037 12.4739C34.5095 12.3691 34.3154 12.0022 34.3154 11.6354L34.3639 11.4781L34.461 11.2685L34.5095 11.0588L34.3639 10.6395L34.2183 10.325C34.1212 10.1154 34.1212 10.063 34.0241 10.063L33.8785 10.1154L33.7329 10.2202L33.5388 10.4299L33.3446 10.5347C33.2476 10.5871 33.1505 10.8492 33.1505 11.0588C33.1505 11.3733 33.199 11.5305 33.6358 12.3167C33.83 12.6836 33.8785 12.8932 33.8785 13.1029C33.8785 13.6794 33.3446 14.1511 32.471 14.3084C31.4517 14.518 31.209 14.7277 31.0634 15.4615C31.2576 15.3566 31.3061 15.3566 31.6459 15.3566H31.84H31.8885L32.1798 15.1994L32.6166 14.8325L32.8107 14.7277L32.9563 14.6229H33.0049L33.0534 14.6753L32.9078 14.8849L32.7137 15.3566L33.0049 15.6711Z" fill="#FFDE26"/>
</g>
<g id="Group_50">
<path id="Vector_50" d="M31.4033 13.5223L31.7916 13.8887L32.0342 14.098L32.2284 14.0457H32.3255C32.5196 13.9933 32.6167 13.941 32.6167 13.8887L32.5681 13.784L32.4225 13.627L32.2769 13.47L31.8886 13.313C31.743 13.3653 31.5974 13.4177 31.4033 13.5223Z" fill="#FFDE26"/>
</g>
<g id="Group_51">
<path id="Vector_51" d="M35.5773 14.2553H35.6744H35.82H35.9171H35.9656L36.2083 14.203L36.451 13.889L36.4995 13.732L36.2568 13.575C35.9171 13.575 35.7229 13.7843 35.5773 14.2553Z" fill="#FFDE26"/>
</g>
<g id="Group_52">
<path id="Vector_52" d="M30.7722 4.66463L30.9178 4.87427C30.9663 4.87427 31.0634 4.66463 31.209 4.45498C31.4032 4.14051 31.5488 3.82603 31.5488 3.6688L31.5003 3.56396L31.3546 3.72121L30.9178 3.98327L30.7237 4.19292V4.29775L30.8207 4.55981L30.7722 4.66463Z" fill="#2F2F27"/>
</g>
<g id="Group_53">
<path id="Vector_53" d="M29.6558 3.66863L29.5102 3.61621L29.4131 3.66863V3.72104L29.4617 3.9831C29.5102 4.19275 29.6073 4.34998 29.6073 4.34998L29.8014 4.71687L30.0927 4.92652L30.1412 4.8741L30.1897 4.61204L30.2383 4.34998V4.29758L30.1412 4.14033L29.8985 4.03552L29.6558 3.66863Z" fill="#2F2F27"/>
</g>
<g id="Group_54">
<path id="Vector_54" d="M30.4811 5.39844H30.4325H30.2869L30.1413 5.29363L29.9472 5.24121L29.753 5.45086C29.753 5.55568 29.8015 5.76533 29.8986 6.0274L30.0442 6.44669C30.1898 6.81357 30.3354 7.02323 30.5296 7.02323C30.6752 7.02323 30.8208 6.866 30.9179 6.60393L31.0635 5.97498L31.3062 5.55569L31.015 5.24121H30.9664L30.7723 5.39844H30.4811Z" fill="#2F2F27"/>
</g>
<g id="Group_55">
<path id="Vector_55" d="M30.6752 5.76538L30.481 5.81773H30.3354H30.2383V5.92241L30.2869 6.2365L30.3354 6.55058L30.481 6.75997L30.7237 6.49823L30.7722 6.18415L30.8208 5.87008L30.7722 5.76538H30.6752Z" fill="#FFDE26"/>
</g>
<g id="Group_56">
<path id="Vector_56" d="M12.9593 35.3258C13.0564 35.6403 13.1049 35.7975 13.1049 35.9547L13.1535 36.5313C13.1535 37.1078 13.3476 37.4223 13.6874 37.4223L13.9786 37.3175L14.1242 37.1602H14.1727L14.3183 37.3175V37.5271C14.3183 37.6319 14.3183 37.8416 14.3669 38.1561V38.785C14.3669 39.0995 14.3669 39.2043 14.2698 39.4664C14.3669 39.7284 14.4154 40.0429 14.4154 40.305C14.4154 40.6194 14.3669 40.8291 14.2698 40.9863C14.3183 41.2484 14.3183 41.3008 14.3183 41.458C14.3183 41.6153 14.3183 41.7725 14.2698 41.9822C14.2213 42.2966 14.2213 42.5063 14.2213 42.6635V42.7159L14.1242 42.8208L13.9786 42.7159L13.7844 42.5587C13.6874 42.5587 13.6874 42.6111 13.5418 43.0304C13.4932 43.1352 13.3961 43.3449 13.2505 43.5545L13.0079 43.9738L12.9108 44.2883L12.8137 44.3407C12.6196 44.3407 12.3769 43.869 12.1342 42.9256C12.0857 42.6635 11.9886 42.5587 11.843 42.5587L11.6003 42.7159L11.5032 42.9256L11.4547 42.978C11.3576 42.978 11.212 42.7683 11.1149 42.5063C11.0179 42.2966 10.9693 42.087 10.9693 41.8773C10.9693 41.458 11.2605 41.1436 12.1827 40.567C12.571 40.305 12.7166 40.0429 12.7166 39.4664C12.7166 39.0471 12.6196 38.785 12.2313 38.5229C11.94 38.3133 11.7944 38.2085 11.6488 38.2085L11.4061 38.4181L11.6488 38.6802C11.843 38.7326 11.94 38.8374 11.94 38.9422C11.94 39.0471 11.843 39.2043 11.6974 39.4664C11.5518 39.7284 11.5032 39.7808 11.3091 39.9381C11.2605 40.305 11.0664 40.567 10.6781 40.8291C10.581 41.0911 10.5325 41.1436 10.4354 41.3532L10.1442 41.7201L9.95005 42.1394C9.90151 42.349 9.90151 42.4015 9.80444 42.4015C9.70736 42.4015 9.51322 42.1918 9.27054 41.9297L9.12493 41.458C8.97932 41.5629 8.93078 41.5629 8.6881 41.6153L8.34834 41.7201C8.1542 41.8249 8.10566 41.8773 8.05712 41.8773L7.96005 41.7725V41.458C7.96005 41.0387 8.10566 40.567 8.34834 40.2001C8.10566 39.9905 7.91151 39.8857 7.71737 39.8333L7.62029 39.7808L7.7659 39.5188L8.00859 39.2567C8.20273 39.0995 8.49395 38.9422 8.73664 38.9422C8.88225 38.9422 9.17346 38.9947 9.46468 39.1519L9.7559 39.2043L9.99858 38.9422C9.99858 38.6802 9.90151 38.3133 9.61029 37.6843C9.41615 37.265 9.36761 36.9506 9.36761 36.7933C9.36761 36.3216 9.56176 35.7975 9.85298 35.6927L9.56176 35.5879L9.17346 35.7451L8.88224 36.0596L8.97932 36.1644L9.07639 36.374C9.07639 36.7409 8.83371 37.1602 8.44542 37.4747C8.34834 37.9464 8.1542 38.2609 7.7659 38.4705C7.71737 38.7326 7.66883 38.8374 7.47468 39.0995C7.13493 39.6236 7.03786 39.7808 6.98932 40.0429L6.89225 40.2525L6.60103 39.9905L6.40688 39.7284C6.35834 39.6236 6.30981 39.5712 6.26127 39.3091L6.06713 39.3615H5.87298H5.72737C5.43615 39.3615 5.14493 39.414 4.99932 39.5188L4.90225 39.5712C4.80518 39.5712 4.75664 39.3615 4.75664 39.1519C4.75664 38.6278 4.90225 38.2609 5.19347 37.7892L4.95079 37.5271L4.85371 37.4223L4.7081 37.3175L4.61103 37.2126C4.61103 37.1602 4.80518 36.9506 4.99932 36.7933C5.242 36.6361 5.43615 36.5313 5.6303 36.5313C5.82444 36.5313 5.97005 36.5837 6.21274 36.8457L6.60103 37.1078L6.79517 37.003L6.84371 36.7933C6.84371 36.5313 6.55249 36.0596 6.21274 35.8499C5.97005 35.6927 5.72737 35.5879 5.43615 35.5879C5.09639 35.5879 4.75664 35.7975 4.61103 36.112L4.46542 36.4265L4.31981 36.5313C4.22274 36.5313 4.1742 36.4789 3.88298 36.112L3.54323 35.6927L3.34908 35.3258L3.30054 35.1686L3.15493 35.0637C2.91225 34.8541 2.7181 34.4872 2.62103 33.9107L2.57249 33.7534C2.28128 33.3341 2.08713 32.81 2.08713 32.3907L2.13567 32.181C1.94152 31.9714 1.94152 31.919 1.79591 31.3949C1.69884 31.028 1.6503 30.8707 1.50469 30.6611L1.45615 30.5563L1.74737 30.399L1.99006 30.3466H2.23274V29.9797C2.23274 29.7701 2.23274 29.6128 2.28128 29.3508L2.32981 29.0363L2.28128 28.7742L2.23274 28.5646L2.1842 28.4598L2.28128 28.4074L2.42688 28.4598C2.66957 28.5646 2.81518 28.7218 2.96079 28.8267C3.39762 29.1935 3.73737 29.7701 3.73737 30.137V30.2418L3.68883 30.4514L3.78591 30.6611L3.93152 30.8707L4.12566 31.3949C4.12566 31.4997 4.07713 31.6045 3.88298 31.919C3.73737 32.181 3.6403 32.3383 3.6403 32.5479C3.6403 32.81 3.73737 33.1245 3.88298 33.4389C4.02859 33.7534 4.22274 33.9107 4.36835 33.9107C4.65957 33.9107 4.80517 33.6486 4.80517 32.9148C4.80517 32.5479 4.85371 32.181 4.90225 31.8666V31.6569L4.75664 31.3949L4.36835 30.9232C3.98005 30.4514 3.88298 30.2418 3.88298 29.8749C3.88298 29.508 4.12566 29.246 4.46542 29.246H4.61103V29.1411L4.65957 28.7742C4.75664 28.4598 4.85371 28.2501 4.90225 28.2501L5.04786 28.3025L5.29054 28.4074L5.53322 28.5646C5.58176 28.3025 5.6303 28.1977 5.72737 28.0929C5.87298 27.8832 6.06712 27.6736 6.1642 27.6736L6.35834 27.8308L6.60103 28.0929L6.74664 28.355L6.79517 28.4598L6.94078 28.355L7.13493 28.2501L7.37761 28.1453L7.52322 28.0929C7.57176 28.0929 7.57176 28.1977 7.66883 28.617C7.71737 28.9315 7.7659 28.9839 7.7659 29.246C8.1542 29.2984 8.34834 29.5604 8.34834 30.0321C8.34834 30.5039 8.1542 30.9232 7.71737 31.4473L7.57176 31.7618C7.57176 32.9672 7.96005 33.3865 9.36761 33.5438C10.2413 33.6486 10.484 33.701 11.5518 34.0679C12.0857 34.2251 12.4254 34.33 12.6196 34.33C12.8622 34.33 13.0079 34.2251 13.0079 34.0679C13.0079 33.8058 12.8137 33.7534 11.7944 33.4914C9.41615 32.9672 8.49395 32.0762 8.49395 30.399C8.49395 29.1935 9.31907 28.3025 10.4354 28.3025C10.9208 28.3025 11.3576 28.4598 12.0857 28.8791C12.7166 29.2984 12.8622 29.3508 13.0079 29.3508C13.202 29.3508 13.2505 29.246 13.2505 28.9315L13.3961 28.617L13.7844 28.9315C13.9786 29.1936 14.0757 29.3508 14.0757 29.7177C14.0757 30.2418 13.833 30.5563 13.3476 30.7135L13.2505 30.8707C13.0079 31.1852 12.7652 31.29 12.3283 31.29C11.94 31.29 11.5032 31.1328 11.1635 30.8707L10.5325 30.399C10.2413 30.1894 10.0957 30.0846 9.90151 30.0846C9.65883 30.0846 9.46468 30.2418 9.46468 30.5563C9.46468 30.8183 9.65883 31.0804 9.90151 31.1328L10.484 31.3424C10.6781 31.3949 10.7752 31.4473 11.0179 31.6045L11.3091 31.5521C11.6488 31.5521 12.0371 31.6569 12.3769 31.8666L12.6196 31.9714L12.9593 32.0762C13.6874 32.2859 14.2698 33.1769 14.2698 34.0155C14.2698 35.0113 13.6874 35.5879 12.7166 35.5879L12.9593 35.3258Z" fill="#2B2C2C"/>
</g>
<g id="Group_57">
<path id="Vector_57" d="M12.7167 43.6072L12.8138 43.4499L13.0079 43.2403C13.1535 43.083 13.2506 42.821 13.2506 42.5065L13.2021 42.0348L13.1535 41.7727L13.2991 41.6155L13.3962 41.6679L13.5903 41.8776L13.8816 42.0872V41.8776V41.6679C13.8816 41.3534 13.7845 40.9866 13.5903 40.7245L13.4447 40.4624L13.4933 40.3576L13.5418 40.41L13.7845 40.5672L13.8816 40.2004C13.8816 39.9383 13.7845 39.6238 13.6389 39.4142L13.4933 39.2045L13.4447 39.0997L13.5418 38.9949L13.6874 39.0473L13.7845 39.0997C13.8816 39.0997 13.9301 38.9425 13.9301 38.5232V38.3659V38.1039C13.9301 37.7894 13.8816 37.737 13.7845 37.737H13.6874C13.0564 37.737 12.7652 37.3177 12.6196 36.1646C12.5225 35.326 12.2313 34.7495 11.843 34.5922C11.6489 34.5398 11.5518 34.4874 11.5518 34.3826L11.6974 34.3302L11.9401 34.3826C12.474 34.5922 12.8623 34.6971 13.2506 34.6971C13.8816 34.6971 14.3669 34.2254 14.3669 33.5964C14.3669 33.1247 14.1728 32.653 13.7845 32.2337L13.4447 32.024H13.3962H13.3477L13.3962 32.2337L13.4447 32.3909V32.4433L13.3962 32.4957L13.2991 32.4433L13.0564 32.0765C12.8623 31.762 12.474 31.5523 12.1828 31.5523L11.9886 31.7096L12.0857 31.8668L12.1828 32.0765V32.1289L12.1342 32.1813C12.0857 32.1813 12.0372 32.1289 11.746 31.8144C11.5033 31.5523 11.0664 31.2379 10.7752 31.2379L10.6782 31.2903L10.6296 31.3427L10.7267 31.4999L10.8723 31.7096L10.8238 31.762C10.7267 31.762 10.5811 31.6571 10.2899 31.3951C9.80449 30.9758 9.61035 30.6089 9.61035 30.1372C9.61035 29.6131 9.9501 29.1938 10.4355 29.1938C10.7267 29.1938 11.0664 29.351 11.3091 29.5082L11.9401 30.0324C12.2313 30.2944 12.5711 30.3993 12.9594 30.3993L13.2021 30.3468L13.2991 30.242L13.2021 30.1896C12.9594 30.1372 12.8138 30.0324 12.6681 29.9275L12.0372 29.4034C11.7945 29.1938 11.6489 29.0889 11.5518 29.0365C11.2121 28.8269 11.1635 28.7745 11.1635 28.7745L11.2121 28.7221L11.3091 28.7745L11.6489 28.9317C11.746 28.9841 11.9401 29.0889 12.1828 29.2986C12.8623 29.7703 13.2021 29.98 13.6389 29.98C14.0272 29.98 14.3184 29.6655 14.3184 29.2986L14.2699 29.0365L14.2213 28.8793L14.1242 28.8269L14.0757 28.8793L14.0272 29.1938L13.8816 29.351L13.7845 29.5082L13.5418 29.6131C13.3477 29.6131 13.105 29.5082 12.5225 29.0889C11.8916 28.6696 11.3577 28.46 10.9208 28.46C9.99864 28.46 9.27059 29.2462 9.27059 30.242C9.27059 31.6572 10.0472 32.2861 12.5225 32.8626C13.4447 33.0723 13.8816 33.3868 13.8816 33.8061C13.8816 34.2254 13.5903 34.4874 13.105 34.4874H12.7652C12.6681 34.4874 12.2313 34.3302 11.4547 34.1205C10.9208 33.9633 10.2899 33.8585 9.75596 33.8585C8.78523 33.8585 8.15425 34.1729 7.71742 34.8543L7.57181 34.9591L7.47474 34.9067L7.28059 34.7495L6.84376 34.5398L6.55255 34.6447L6.40694 34.7495C6.3584 34.7495 6.21279 34.5922 6.11572 34.3302C5.97011 34.0157 5.87303 33.7012 5.87303 33.3868L5.97011 33.1771L6.06718 33.2819L6.16425 33.7012C6.21279 33.9109 6.3584 34.1205 6.40694 34.1205L6.60108 33.9633L6.69816 33.7536C6.79523 33.4916 6.79523 33.4392 6.84376 33.4392C6.94084 33.4392 6.94084 33.4916 6.98937 33.7536L7.08645 34.0157L7.23206 34.2778L7.37767 34.3302C7.47474 34.3302 7.57181 34.1205 7.57181 33.9109V33.8585V33.5964L7.62035 33.4916L7.71742 33.544L7.9601 33.7536L8.15425 33.8061L8.29986 33.7536L8.3484 33.6488L8.15425 33.3868C8.10572 33.3344 8.00864 33.1247 7.91157 32.8102L7.8145 32.6006L7.71742 32.653L7.57181 32.7054L7.47474 32.7578H7.4262L7.32913 32.653L7.57181 32.3385L7.71742 31.9716C7.71742 31.762 7.76596 31.5523 7.8145 31.5523L7.86303 31.0806C7.86303 30.8185 7.96011 30.3993 8.05718 30.1372L8.10571 30.0324L8.20279 30.242V30.2944V30.4517L8.29986 30.7137L8.49401 30.4517L8.59108 30.1372L8.63962 29.8751C8.63962 29.6131 8.49401 29.4034 8.29986 29.4034H8.20279L8.10571 29.4558L7.9601 29.2986V29.0889V28.8269L7.91157 28.5124V28.3552L7.8145 28.4076L7.66889 28.5124L7.47474 28.6697L7.32913 28.8269L7.23206 28.8793C7.13498 28.8793 7.13498 28.8269 7.13498 28.6172V28.5648C7.13498 28.4076 7.08645 28.2503 6.79523 27.9359L6.74669 27.8311L6.69816 27.9359L6.55255 28.1979L6.40694 28.5648L6.3584 28.8269L6.30986 28.9317L6.16425 28.8269C5.97011 28.5648 5.92157 28.5648 5.63035 28.4076L5.58181 28.5124L5.48474 28.8269V29.0889V29.1938V29.2986L5.43621 29.4034L5.14499 29.351L4.99938 29.2986C4.75669 29.2986 4.61108 29.4558 4.61108 29.6655C4.61108 29.8227 4.65962 29.98 4.9023 30.3468L5.19352 30.6613L5.24206 30.4517L5.19352 30.2944L5.14499 30.0848L5.19352 29.98C5.2906 29.98 5.43621 30.3468 5.48474 30.8185L5.53328 31.3427L5.67889 31.9192C5.77596 32.1813 5.92157 32.3385 6.01864 32.4433L6.21279 32.7054L6.16425 32.8102L5.92157 32.7054H5.8245C5.58182 32.7054 5.48474 32.8626 5.48474 33.3343C5.48474 33.9109 5.8245 34.7495 6.26133 35.0639L6.84376 35.5881C7.13498 35.8501 7.37767 36.2694 7.37767 36.5839C7.37767 37.0032 6.94084 37.3701 6.26133 37.6846L5.8245 37.8418C5.48474 37.9466 5.33913 38.2087 5.24206 38.8901L5.58181 38.8376H5.63035H5.8245L6.11572 38.5756V38.4708L6.21279 38.3659L6.40694 38.2611L6.55255 38.1563L6.60108 38.1039L6.64962 38.2087L6.60108 38.3135L6.55255 38.7852C6.55255 39.0997 6.60108 39.3094 6.74669 39.5714L6.79523 39.4142L7.03791 39.0473C7.23206 38.7328 7.37767 38.4183 7.37767 38.2087V38.1563L7.32913 37.8418L7.37767 37.6846L7.47474 37.6322L7.62035 37.7894L7.71742 37.8942L7.91157 37.6322L7.9601 37.3177L7.91157 37.1604L7.86303 37.0032L7.91157 36.8984L7.9601 36.846L8.05718 36.8984L8.15425 37.0032L8.25133 37.0556L8.44547 36.8984L8.63962 36.4791L8.54254 36.3743C8.29986 36.1646 8.10571 35.9026 8.10571 35.6405L8.15425 35.4308L8.29986 35.0639L8.39693 34.7495H8.44547L8.49401 34.8543L8.44547 35.0115L8.39693 35.2736L8.54254 35.4308L8.73669 35.3784C9.12498 35.2212 9.4162 35.1164 9.61035 35.1164L10.0957 35.2736L10.1928 35.326L10.2899 35.2736L10.3384 35.2212L10.2413 35.0639L10.1442 34.8543L10.1928 34.8019C10.3869 34.8019 10.7267 35.4832 11.0179 36.5839C11.2606 37.4225 11.3091 37.5273 12.0857 37.999C12.7167 38.3659 12.9594 38.7852 12.9594 39.4142C12.9594 40.0431 12.8138 40.8293 12.474 41.8776C12.3769 42.192 12.3284 42.4541 12.3284 42.6113C12.3284 42.7686 12.3769 42.9258 12.474 43.2927L12.5711 43.6072H12.7167Z" fill="#FFDE26"/>
</g>
<g id="Group_58">
<path id="Vector_58" d="M9.75592 41.6679C9.85299 41.4582 9.85299 41.4058 9.9986 41.1962C10.1927 40.8817 10.2898 40.672 10.2898 40.5148V40.3051C10.2898 40.0955 10.3384 39.9907 10.3869 39.9907L10.4354 40.0431L10.484 40.1479L10.581 40.2003L10.7266 40.0955L10.8723 39.6238V39.4665V39.3093L10.9693 39.2045L11.0664 39.3093L11.1635 39.4141L11.2606 39.3093L11.3576 39.1521L11.4547 39.0473V38.9948L11.3576 38.89C11.1149 38.6804 11.0179 38.4183 11.0179 37.8942C11.0179 37.5273 10.9693 37.2652 10.9693 37.108C10.9693 37.0556 10.8723 36.8984 10.7266 36.5315L10.581 36.0073L10.4354 35.8501C10.0957 35.8501 9.80445 36.1646 9.80445 36.5839C9.80445 36.8459 9.90153 37.2128 10.0957 37.6845C10.3384 38.3659 10.3869 38.5755 10.3869 38.8376C10.3869 39.3617 10.1927 39.5714 9.56177 39.8334C8.83372 40.0955 8.49397 40.5148 8.34836 41.2486L8.49397 41.1962L8.68811 41.1437L8.88226 41.0913L9.22202 40.8293L9.27055 40.6196L9.36763 40.5148L9.4647 40.4624L9.56177 40.41L9.61031 40.4624L9.56177 40.6196L9.51324 40.9341C9.51324 41.2486 9.56177 41.4058 9.75592 41.6679Z" fill="#FFDE26"/>
</g>
<g id="Group_59">
<path id="Vector_59" d="M2.86368 28.8269L2.91222 28.9841L2.86368 29.351V29.6131C2.86368 29.8752 2.91222 30.1372 2.96076 30.3469L3.05783 30.6613V30.7138L3.00929 30.8186L2.86368 30.7138L2.37832 30.5041L2.13564 30.5565L2.18417 30.7138L2.37832 31.2379L2.66954 31.6572L2.96076 31.8668L3.05783 31.9716L3.10637 32.0765L3.05783 32.1289H2.81515L2.76661 32.1813C2.76661 32.2337 2.81515 32.3909 2.86368 32.6006L3.00929 33.0199L3.25198 33.2295L3.49466 33.3868L3.59173 33.544L3.5432 33.6488H3.39759L3.34905 33.7537C3.34905 33.8585 3.44612 34.0681 3.59173 34.2778C3.78588 34.5923 3.93149 34.6447 4.17417 34.6447H4.36832L4.51393 34.7495L4.36832 34.8543L4.12563 35.0116L4.17417 35.1688L4.27124 35.326L4.51393 35.5357L4.70807 35.4309L5.1449 35.1164C5.58173 35.0116 5.6788 34.9591 5.6788 34.8543L5.63027 34.6971C5.48466 34.435 5.43612 34.2254 5.43612 34.0157L5.33905 33.7012L5.24197 33.8061L4.80514 34.1206C4.36832 34.1206 3.83441 33.3868 3.5432 32.3909C3.49466 32.1813 3.44612 31.9192 3.44612 31.6572C3.44612 31.3951 3.49466 31.0806 3.5432 30.8186C3.64027 30.3993 3.6888 30.1896 3.6888 30.1372V29.9276C3.59173 29.6131 3.30051 29.1414 2.86368 28.8269Z" fill="#FFDE26"/>
</g>
<g id="Group_60">
<path id="Vector_60" d="M3.78588 30.7136C3.68881 30.9233 3.59174 31.3426 3.59174 31.6046L3.68881 31.8667L3.73735 31.8143L3.88296 31.5522L3.98003 31.395L4.0771 31.1853L3.78588 30.7136Z" fill="#FFDE26"/>
</g>
<g id="Group_61">
<path id="Vector_61" d="M5.19342 37.0027L5.24196 37.0551L5.33903 37.1597C5.58171 37.4214 5.63025 37.4737 5.72732 37.4737L6.21269 37.3167L6.30976 37.2121L6.16415 37.0551L6.01854 36.8981L5.67878 36.6887C5.58171 36.7411 5.4361 36.8457 5.19342 37.0027Z" fill="#FFDE26"/>
</g>
<g id="Group_62">
<path id="Vector_62" d="M8.15421 39.5184L8.39689 39.6754L8.59103 39.8324L8.78518 39.8847L8.93079 39.8324L9.22201 39.7277L9.46469 39.623L9.56176 39.5184L9.41615 39.466L9.22201 39.4137C8.88225 39.2567 8.83372 39.2567 8.73664 39.2567C8.59103 39.152 8.29981 39.309 8.15421 39.5184Z" fill="#FFDE26"/>
</g>
<g id="Group_63">
<path id="Vector_63" d="M11.406 42.2969C11.5031 42.0873 11.5517 42.0348 11.8429 42.0348C12.1826 42.0348 12.4739 41.3535 12.4739 40.9342L12.4253 40.8293L12.3282 40.8818L12.1341 40.9866L11.7458 41.1438C11.5031 41.2486 11.2604 41.6155 11.2604 41.8776L11.406 42.2969Z" fill="#FFDE26"/>
</g>
<g id="Group_64">
<path id="Vector_64" d="M5.87299 30.241L6.0186 30.4503L6.30982 30.6597L6.40689 30.555L6.45543 30.3456V30.1363C6.45543 29.9792 6.35836 29.8745 6.0186 29.7698L5.82446 29.7175L5.67885 29.6128L5.63031 29.6651V29.7175L5.67885 29.9269L5.87299 30.241Z" fill="#2F2F27"/>
</g>
<g id="Group_65">
<path id="Vector_65" d="M7.5232 29.5608L7.32905 29.7178L7.08637 29.8225L6.84369 30.0319V30.2936L6.9893 30.6077H7.03784L7.08637 30.5554L7.23198 30.2413L7.5232 29.9272L7.62027 29.6655L7.57174 29.5608H7.5232Z" fill="#2F2F27"/>
</g>
<g id="Group_66">
<path id="Vector_66" d="M6.89218 31.1853L7.08632 31.0805L7.1834 31.0281L7.37754 31.2377C7.37754 31.395 7.28047 31.6046 7.08632 31.9191C6.94071 32.2336 6.7951 32.4956 6.64949 32.4956C6.45535 32.4956 6.21267 32.1811 5.96998 31.657L5.87291 31.2901L6.06706 31.0281L6.21267 31.0805L6.30974 31.1853L6.64949 31.2901L6.89218 31.1853Z" fill="#2F2F27"/>
</g>
<g id="Group_67">
<path id="Vector_67" d="M6.601 31.4997L6.45539 31.4474L6.30978 31.6044L6.55247 32.1802L6.64954 32.2326C6.74661 32.2326 6.79515 32.0755 6.84369 31.7615L6.89222 31.5521V31.4997L6.79515 31.395H6.74661" fill="#FFDE26"/>
</g>
<g id="Group_68">
<path id="Vector_68" d="M35.3346 35.1161C35.5773 35.4305 35.8685 35.6402 36.1112 35.6402L36.4509 35.5878L36.6451 35.5354L36.7421 35.6402L36.6936 35.9023L36.5965 36.1643L36.548 36.4788L36.4024 36.7409L36.2082 36.8981L36.1597 36.9505V37.0553V37.1077C36.1597 37.4222 36.0626 37.6319 35.8199 37.8415L35.7229 37.8939L35.6743 37.9988C35.6258 38.2608 35.5773 38.418 35.5287 38.4705L35.286 38.8374C35.1404 39.047 35.0434 39.2567 34.9463 39.4139L34.7521 39.5711L34.4609 39.2042L34.4124 39.3091L34.2668 39.4139L34.0241 39.5711L33.8299 39.7284L33.6843 39.8856L33.5873 39.938C33.5387 39.938 33.4416 39.8332 33.3931 39.5711L33.2475 39.0994L33.296 38.7849C33.296 38.5753 33.296 38.4705 33.3931 38.3132C33.1504 38.3656 33.0534 38.3656 32.9077 38.418L32.8107 38.4705L32.7621 38.3656L32.8107 38.156L32.9563 37.6843C33.1019 37.3174 33.4902 37.0029 33.8299 37.0029L34.1697 37.0553L34.3638 37.1077L34.6551 36.8457L34.558 36.6884C34.558 36.6884 34.3638 36.636 34.0726 36.5312C33.8785 36.4788 33.7329 36.374 33.4902 36.0595C33.296 35.8498 33.2475 35.7974 33.199 35.7974L33.1019 35.9023V36.1119V36.2167C33.1019 36.5836 33.0048 36.9505 32.7621 37.4746L32.4224 38.156C32.2282 38.4705 32.1797 38.7325 32.1797 38.9946C32.1797 39.2566 32.2768 39.5187 32.4224 39.5711L32.6165 39.6235L32.6651 39.676L32.7136 39.7808L32.6651 39.8856L32.4224 40.2001C32.1797 40.5146 32.0826 40.6194 31.7914 40.7242C31.6458 41.1435 31.4031 41.3531 30.9177 41.5104L30.8692 41.6152C30.7236 41.9297 30.3838 42.1917 30.1412 42.1917H30.0926C30.0441 42.4538 29.8985 42.7159 29.6558 42.8731L29.3646 43.1352L29.316 43.24L29.1219 43.4496C28.9763 43.4496 28.8792 43.2924 28.7821 43.0303L28.6851 43.1352L28.4424 43.2924C28.3938 43.3448 28.2482 43.3972 28.0056 43.4496C27.6658 43.502 27.4231 43.6593 27.326 43.8165L27.229 44.0262L27.1804 44.0786L27.0348 43.8689C26.9863 43.6069 26.9378 43.2924 26.9378 43.0828C26.9378 42.611 27.0834 42.2442 27.5687 41.7724V41.6676C27.5687 40.8814 28.1026 40.4097 28.9278 40.4097H29.0734L29.5102 40.4621H29.5587C29.8014 40.4621 29.9956 40.3573 30.2382 40.1477C30.5295 39.8856 30.6265 39.676 30.6265 39.4139C30.6265 39.3091 30.578 39.2042 30.4809 38.8374C30.4324 38.6277 30.3838 38.418 30.3838 38.2084C30.3838 37.6319 30.7721 36.8981 31.306 36.5312L31.5487 36.2167L31.5002 36.1643L31.3546 36.2692L31.0634 36.4788L30.8692 36.5836L30.6265 36.6884L30.5295 36.7933L30.578 36.8981L30.6265 37.0029L30.578 37.1602L30.3838 37.4746C30.1897 37.7891 30.0926 37.9463 29.8499 38.0512C29.7043 38.5229 29.5102 38.7325 29.219 38.7849C28.9763 39.3091 28.7821 39.5187 28.3453 39.5711C28.2968 39.7808 28.1997 39.938 27.957 40.2001L27.8114 40.4097L27.4717 40.3573L27.1804 40.1477L27.0834 39.9904L26.9863 39.7808L26.8407 39.676H26.7436L26.4524 39.7284L25.9185 40.0428L25.7729 40.3049L25.7243 40.3573C25.6273 40.3573 25.5302 40.0952 25.5302 39.6235C25.5302 39.2042 25.5787 38.9422 25.7243 38.7849L26.0641 38.2608L26.1612 38.0512L26.1126 37.8939L25.9185 37.7367L25.6273 37.6843L25.5787 37.6319L25.6273 37.527L25.967 37.2126C26.3068 37.0029 26.5009 36.8981 26.6951 36.8981C26.8892 36.8981 27.1319 37.0029 27.3746 37.1602L27.7629 37.4222L27.957 37.4746C28.1512 37.4746 28.2482 37.3698 28.3939 37.1077C28.4909 36.8457 28.5395 36.6884 28.5395 36.4788C28.5395 35.9547 28.1997 35.5878 27.7143 35.5878C27.4717 35.5878 27.2775 35.6926 27.0348 35.8498L26.8892 36.0071L26.7921 36.2692L26.6951 36.374C26.6465 36.374 26.5009 36.1643 26.3553 35.9023L26.1612 35.3781C26.0641 35.1161 26.0641 34.9064 26.0641 34.6968V34.3299C25.8699 34.0154 25.8214 33.8058 25.8214 33.4913C25.8214 33.3865 25.8214 33.2816 25.9185 33.0196C25.8214 32.8099 25.7729 32.6527 25.7729 32.3906V32.2334L25.8214 32.0237L25.8699 31.8665C25.7243 31.7093 25.7243 31.552 25.5787 30.9755C25.5302 30.6086 25.4817 30.5038 25.4331 30.399L25.3846 30.2941C25.3846 30.1893 25.5787 30.1369 25.7729 30.1369H25.967L25.9185 29.8748L26.0156 29.2983C26.0641 29.0886 26.1126 29.0362 26.1126 28.9838L26.0641 28.5645L25.967 28.3025L25.9185 28.1452L25.967 28.0928C26.2097 28.0928 26.6951 28.4073 27.0834 28.7742C27.4717 29.1411 27.5687 29.4555 27.5687 30.0321V30.3465C27.9085 30.661 28.0541 30.9755 28.0541 31.2376C28.0541 31.4472 28.0056 31.6045 27.8114 31.8141C27.4717 32.181 27.3746 32.3906 27.3746 32.8623C27.3746 33.5961 27.5687 34.0154 27.957 34.0154C28.2968 34.0154 28.5395 33.6485 28.588 33.072L28.6365 32.5479L28.6851 32.0237L28.7336 31.6569C28.7336 31.4472 28.6365 31.2376 28.2968 30.8183C27.957 30.3465 27.8114 30.1369 27.8114 29.77C27.8114 29.3507 28.1026 29.0362 28.4424 29.0362L28.6851 29.0887C28.6851 28.8266 28.6851 28.7742 28.8307 28.4597C28.9278 28.1976 29.0248 27.988 29.0734 27.988L29.1704 28.0404L29.316 28.1976L29.4617 28.3025L29.5587 28.4073C29.6558 28.0928 29.7043 27.9356 29.947 27.7259L30.2382 27.4639L30.3353 27.5163L30.4809 27.7259L30.7236 27.988C30.8207 28.0928 30.8207 28.1976 30.8692 28.4073L31.0148 28.3025L31.209 28.1976L31.3546 28.0928L31.4516 28.0404L31.5002 28.1452L31.5973 28.4597L31.7429 28.8266L31.7914 29.1935V29.2983H31.8885C32.1312 29.2983 32.3738 29.6128 32.3738 29.9797C32.3738 30.4514 31.9856 31.1327 31.5487 31.4472L31.5002 31.8141C31.5002 32.9148 31.7914 33.1768 33.3446 33.3865C33.7329 33.4389 34.0726 33.5437 34.4124 33.6485C34.4609 33.6485 34.8007 33.8058 35.4316 34.0154C35.7714 34.1202 36.0141 34.1727 36.2082 34.1727L36.4995 34.0154C36.4995 33.8058 36.2568 33.6485 35.4316 33.3341L34.3153 32.8623C33.199 32.3906 32.6651 31.6569 32.6651 30.5038C32.6651 29.2459 33.5387 28.2501 34.7521 28.2501C35.189 28.2501 35.6258 28.3549 36.2568 28.6169C37.0819 28.9314 37.1304 28.9314 37.179 28.9314C37.3246 28.9314 37.4216 28.8266 37.4216 28.5645C37.4216 28.3549 37.4702 28.2501 37.6158 28.2501C37.7614 28.2501 37.9555 28.4073 38.0526 28.6694C38.1497 28.879 38.1982 29.1411 38.1982 29.4031C38.1982 29.8748 37.9555 30.1369 37.5673 30.2417C37.276 30.6086 36.9363 30.8183 36.548 30.8183C36.0141 30.8183 35.7714 30.7134 34.8977 30.1369C34.6065 29.9273 34.4609 29.8748 34.2182 29.8748C33.927 29.8748 33.6843 30.0845 33.6843 30.3465C33.6843 30.6086 33.8785 30.7658 34.3153 30.8707C34.558 30.9231 34.6065 30.9755 34.7521 31.1327L34.9463 31.0803C35.3831 31.0803 35.8685 31.3424 36.3053 31.7093C37.0819 31.9713 37.8099 32.9148 37.8099 33.6485C37.8099 34.4871 37.1304 35.2733 36.3538 35.2733C36.1112 35.3257 35.6743 35.2209 35.3346 35.1161Z" fill="#2B2C2C"/>
</g>
<g id="Group_69">
<path id="Vector_69" d="M34.8493 38.9948L34.8978 38.8376L34.9464 38.6279L35.092 38.3659C35.2376 38.1562 35.2861 37.9466 35.2861 37.6845L35.2376 37.4224L35.189 37.3176L35.2376 37.2652V37.2128L35.3832 37.3176L35.5288 37.4224L35.6744 37.1604V37.0031L35.5773 36.6363L35.5288 36.479L35.5773 36.3742L35.7715 36.479L35.8686 36.5314C35.9656 36.5314 36.0142 36.4266 36.0627 36.217L36.1112 36.0073L36.0627 35.9549H36.0142H35.8686C35.6259 35.9549 35.2861 35.7977 35.1405 35.588L34.8007 35.1163L34.461 34.6446L34.1698 34.4349L34.0727 34.3301L34.2183 34.2253C34.2668 34.2253 34.5095 34.3301 34.8978 34.4873C35.2861 34.6446 35.8686 34.8018 36.2083 34.8018C36.8393 34.8018 37.3247 34.2777 37.3247 33.5963C37.3247 33.2295 37.179 32.915 36.8393 32.4433L36.5966 32.286L36.5481 32.3908L36.5966 32.5481V32.6529L36.5481 32.7577C36.451 32.7577 36.4025 32.6005 36.3054 32.3908C36.2083 32.0764 36.0627 31.9191 35.6744 31.7095L35.2861 31.5523L35.2376 31.6047L35.2861 31.7619L35.3832 32.024L35.3347 32.1288C35.2376 32.1288 35.2376 32.1288 35.0434 31.8143C34.9464 31.6571 34.7037 31.4474 34.461 31.3426L34.2668 31.2902L34.1698 31.3426L34.2183 31.4474V31.4998L34.1698 31.5523C34.0727 31.5523 33.8786 31.3426 33.6844 31.0805C33.4903 30.8185 33.3447 30.504 33.3447 30.242C33.3447 29.7178 33.83 29.2461 34.3154 29.2461L34.6551 29.2985L35.092 29.5606L35.6259 29.9275C35.9171 30.1371 36.3539 30.2944 36.5966 30.2944C36.6937 30.2944 36.7422 30.2944 36.9849 30.1895L37.179 30.0323L37.1305 29.9799H36.8393C36.6937 29.9799 36.3054 29.7702 36.0627 29.613L35.4803 29.1937L34.9464 28.9316L34.8978 28.8792L34.9464 28.8268L35.092 28.8792L35.5773 29.0365C35.7229 29.0889 35.9171 29.1937 36.1598 29.3509C36.6937 29.6654 37.0334 29.7702 37.2761 29.7702C37.5673 29.7702 37.81 29.5606 37.81 29.2461L37.7615 28.8268L37.6644 28.6696L37.6159 28.6172L37.5673 28.722V28.8268V28.9316C37.5673 29.1937 37.4703 29.2985 37.2276 29.2985C37.0334 29.2985 36.7422 29.1937 36.0627 28.9316C35.4317 28.6696 35.0434 28.5648 34.7037 28.5648C33.7329 28.5648 32.9078 29.4034 32.9078 30.3992C32.9078 31.2378 33.4417 31.8667 34.461 32.3384L35.5773 32.8102C36.4995 33.2295 36.7907 33.4915 36.7907 33.8584C36.7907 34.1729 36.4995 34.3825 36.1112 34.3825C35.9171 34.3825 35.7229 34.3301 35.2861 34.1729C34.2668 33.806 33.5873 33.6488 33.0049 33.6488C32.0342 33.6488 31.3547 33.9108 30.8208 34.5398L30.6266 34.6446L30.4325 34.5398L30.1412 34.4349L29.85 34.6446L29.7044 34.8018L29.6073 34.9066L29.2676 34.5398L29.122 34.1729L29.0734 33.806V33.5439L29.122 33.2819L29.1705 33.0198L29.219 32.9674L29.3161 33.177V33.2819V33.3343C29.3161 33.7536 29.4617 34.068 29.6073 34.068C29.753 34.068 29.85 33.806 29.9471 33.3343L30.0442 33.177C30.0927 33.177 30.1412 33.2294 30.1412 33.4391L30.3354 33.8584L30.481 33.9632C30.5781 33.9632 30.6751 33.806 30.7237 33.3867L30.8208 33.1246L30.8693 33.177L30.9664 33.3343L31.112 33.4915L31.2576 33.5439L31.3547 33.4915L31.4517 33.3867L31.3547 33.2819C31.2576 33.177 31.209 33.0722 31.112 32.8102L31.0149 32.4957L30.9664 32.3908H30.9178H30.8208L30.5295 32.4957H30.4325L30.3839 32.4433L30.481 32.286C30.8208 32.024 31.0149 31.5523 31.0634 30.8709C31.112 30.4516 31.1605 30.2944 31.3061 30.0323L31.4032 29.9275L31.5003 30.0323L31.4517 30.242L31.4032 30.3992V30.4516L31.4517 30.5564L31.5973 30.504L31.7429 30.2944L31.8886 29.7178L31.7915 29.4034L31.5973 29.2461H31.5003H31.4032L31.2576 29.1413V29.0365V28.8792L31.1605 28.5123L31.112 28.3551L31.0634 28.1979L30.9664 28.2503L30.7722 28.3551L30.6266 28.5123C30.4325 28.7744 30.4325 28.7744 30.3354 28.7744L30.2869 28.722V28.6696L30.3354 28.4075C30.3354 28.1455 30.1898 27.7786 29.9956 27.6213C29.7044 27.8834 29.6073 28.1979 29.6073 28.5123V28.6696L29.5588 28.7744L29.4617 28.722L29.3161 28.5123L29.122 28.3551L29.0249 28.2503L28.9764 28.3551C28.8308 28.6172 28.7822 28.7744 28.7822 29.0365L28.7337 29.2985L28.6366 29.2461C28.4425 29.1413 28.4425 29.1413 28.3454 29.1413C28.1027 29.1413 27.9571 29.2985 27.9571 29.5606L28.1027 30.0323C28.1998 30.2419 28.3939 30.4516 28.491 30.4516L28.5395 30.3468V30.2944V30.0847L28.491 29.9275L28.5395 29.8751C28.6366 29.8751 28.7822 30.242 28.8308 30.9757C28.9278 31.6047 29.0734 32.0764 29.3161 32.3384L29.4132 32.4957L29.3647 32.5481L29.219 32.4957L29.0734 32.4433L28.7822 32.7577L28.6851 33.5439L28.5881 34.6446C28.5881 34.8542 28.5881 35.1163 28.6851 35.4832C28.7337 35.7977 28.7822 36.0073 28.7822 36.1645C28.7822 37.0031 28.2969 37.6321 27.5203 37.8941L26.6951 38.1562C26.1612 38.3134 25.9186 38.6803 25.87 39.3617C26.0156 39.2569 26.0642 39.2569 26.2583 39.2045L26.501 39.1521L26.6951 39.0996L26.8408 38.9424L27.0349 38.6803L27.2291 38.5231L27.2776 38.6279L27.1805 38.8376L27.0834 39.2045C27.0834 39.3617 27.132 39.5189 27.2776 39.7286L27.3261 39.5713L27.5203 39.2569C27.7144 38.9948 27.8115 38.7328 27.8115 38.6279C27.8115 38.4183 27.8115 38.3659 27.86 38.3659L27.9086 38.5231L27.9571 38.6279L28.0542 38.6803L28.1512 38.6279L28.3454 38.4183L28.491 38.1562L28.5395 37.8941V37.7369L28.5881 37.6321L28.7337 37.7893L28.8308 37.8417L28.9278 37.7893L29.1705 37.2652V37.0031L29.122 36.7935L29.1705 36.6887L29.3647 37.0031L29.4617 37.1604L29.7044 36.8983L29.8015 36.7411L29.85 36.5838L29.8015 36.4266L29.7044 36.2694V36.1121C29.7044 35.9025 29.7529 35.6928 29.8986 35.4832L30.0442 35.1163L30.0927 35.0115L30.1412 35.0639V35.2211V35.3259V35.4308L30.2383 35.4832L30.3839 35.4308L30.7237 35.3259L31.0149 35.1687C31.5003 34.8542 31.6944 34.8018 31.9371 34.8018C32.0827 34.8018 32.2768 34.8542 32.5681 35.0115L32.7137 35.0639L32.8108 35.0115L32.8593 34.9066L32.8108 34.7494L32.7137 34.5398L32.7622 34.4873L32.8593 34.5398C32.9078 34.5922 33.0049 34.8018 33.1505 35.1163C33.3932 35.588 33.6844 35.9025 33.9756 35.9549L34.5581 36.1121C34.7522 36.1645 34.8007 36.217 34.8007 36.479C34.8007 36.8983 34.6066 37.2652 34.2668 37.5273L33.7815 37.8417C33.6359 37.9466 33.4903 38.261 33.4903 38.5231C33.4903 38.6803 33.5388 38.9948 33.5873 39.2569L33.6844 39.1521L33.9271 38.9948L34.1212 38.7852L34.2183 38.4707L34.3154 38.2086L34.461 37.999L34.5095 38.2086V38.261V38.3135C34.6551 38.5755 34.7037 38.6803 34.8493 38.9948Z" fill="#FFDE26"/>
</g>
<g id="Group_70">
<path id="Vector_70" d="M27.229 42.9258C27.229 42.2444 27.4717 41.9824 28.3453 41.5107C30.0927 40.5672 31.0149 39.6762 31.0149 38.9949C31.0149 38.8376 30.9663 38.6804 30.8692 38.2611C30.8207 37.999 30.7722 37.7894 30.7722 37.6846C30.7722 37.3701 31.0149 36.8984 31.3061 36.6363L31.5488 36.3742L31.7914 35.955V35.9025V35.7977L31.9856 35.5881H32.0827L32.1797 35.5356L32.2768 35.5881L32.3253 35.6929L32.4224 35.7977L32.5195 35.8501L32.6166 35.7977L32.7622 35.7453L32.8592 35.8501C32.8592 36.1122 32.7136 36.5315 32.3739 36.9508C31.8885 37.6846 31.7429 38.0514 31.7429 38.5232C31.7429 38.89 31.84 39.2045 32.0341 39.4666L32.0827 39.5714L31.9856 39.7286L31.8885 39.8335L31.6458 40.0431L31.5488 39.9383L31.5002 39.781L31.4031 39.7286L31.3546 39.781L31.3061 39.9383V40.2004L31.209 40.4624L31.0149 40.6721L30.9178 40.7245L30.8207 40.6196L30.7236 40.3576L30.6751 40.3052L30.578 40.5148C30.5295 40.8293 30.481 41.0389 30.4324 41.0914L30.2383 41.2486L30.0927 41.3534L29.9956 41.301L29.8985 41.0914L29.85 41.0389C29.8014 41.0389 29.7529 41.1438 29.7529 41.3534C29.7044 41.8775 29.6073 42.0872 29.3646 42.2444C29.1705 42.4017 29.1219 42.4541 29.0249 42.6113C28.9278 42.4541 28.8792 42.2968 28.8792 42.0348L28.9278 41.7727L29.0249 41.5631L28.9763 41.5107L28.9278 41.5631L28.7822 41.7203C28.5395 41.8775 28.5395 41.93 28.4424 42.192C28.3453 42.5589 28.1997 42.7161 27.86 42.821C27.4232 42.9258 27.3746 42.9258 27.229 43.083V42.9258Z" fill="#FFDE26"/>
</g>
<g id="Group_71">
<path id="Vector_71" d="M26.4039 28.6174V28.7747V28.9843L26.3554 29.194L26.3068 29.5084C26.3068 29.7705 26.3554 29.9277 26.501 30.1898L26.6466 30.6615L26.5981 30.7663L26.5495 30.7139L26.4524 30.5567C26.3554 30.4519 26.3068 30.3994 26.0642 30.3994H25.8215C25.9185 30.6615 25.9185 30.7139 25.9671 30.8712C26.0642 31.3429 26.0642 31.3429 26.3068 31.6049C26.5495 31.8146 26.5495 31.867 26.5495 31.9194L26.4524 32.0242H26.3554H26.3068L26.1612 32.3387L26.2583 32.7056L26.3554 32.8628L26.501 33.0201L26.5495 33.1773L26.4524 33.2821L26.3554 33.2297L26.2583 33.1773L26.1612 33.2821V33.4918L26.2583 33.8587L26.4039 34.1207L26.5981 34.278L26.8407 34.3828L26.8893 34.4876L26.7922 34.5924L26.6466 34.54H26.501L26.3554 34.6449V34.8545L26.501 35.1166C26.5495 35.3262 26.6466 35.4835 26.6951 35.4835L26.7922 35.431C26.9863 35.2738 27.3746 35.1166 27.5688 35.1166C27.8115 35.1166 28.1027 35.169 28.1998 35.169L28.3454 35.2214L28.3939 35.0641L28.4424 34.8021L28.491 34.3828L28.5395 34.0683V33.9111L28.4424 34.0159C28.1998 34.2255 28.1027 34.3304 27.86 34.3304C27.2776 34.3304 26.9378 33.5966 26.9378 32.3387C26.9378 31.8146 26.9864 31.0808 27.132 30.2422L27.1805 29.8753C27.132 29.4036 26.8893 28.9319 26.4039 28.6174Z" fill="#FFDE26"/>
</g>
<g id="Group_72">
<path id="Vector_72" d="M27.3746 30.9752L27.3261 31.1846L27.2776 31.394V31.6034V31.7081L27.3746 31.6034L27.5203 31.4987L27.6659 31.0799L27.6173 30.8705L27.4717 30.6611L27.3746 30.9752Z" fill="#FFDE26"/>
</g>
<g id="Group_73">
<path id="Vector_73" d="M26.1612 37.4218L26.4524 37.6835C26.6466 37.8928 26.7436 37.9452 26.9863 37.9452L27.1805 37.8928L27.3261 37.8405L27.4717 37.7882L27.5688 37.7358L27.3261 37.4742L27.0349 37.2648L26.7436 37.1602L26.1612 37.4218Z" fill="#FFDE26"/>
</g>
<g id="Group_74">
<path id="Vector_74" d="M27.86 41.2997C27.86 40.8286 28.2483 40.4622 28.7822 40.4622C29.0249 40.4622 29.1705 40.5145 29.1705 40.6192C29.1705 40.6715 29.0734 40.7762 28.8308 40.9333C28.8308 40.9333 28.6852 41.038 28.4425 41.1427C28.1998 41.2997 28.1027 41.352 27.86 41.4567V41.2997Z" fill="#FFDE26"/>
</g>
<g id="Group_75">
<path id="Vector_75" d="M33.102 37.9456L33.4417 37.8409H33.6844L33.83 37.7362L34.0242 37.5792C34.2669 37.3699 34.3154 37.3699 34.3154 37.3176C34.3154 37.2129 34.2183 37.2129 33.9756 37.2129C33.5388 37.2652 33.2961 37.4222 33.102 37.9456Z" fill="#FFDE26"/>
</g>
<g id="Group_76">
<path id="Vector_76" d="M29.2191 29.5081L29.4132 29.6129L29.6559 29.7701C29.85 29.8749 29.9471 29.875 29.9471 29.9798L29.8986 30.137L29.85 30.3467L29.6559 30.6087C29.5588 30.6087 29.4617 30.4515 29.3161 30.1894L29.122 29.6129V29.5605L29.2191 29.5081Z" fill="#2F2F27"/>
</g>
<g id="Group_77">
<path id="Vector_77" d="M30.9178 29.6132L30.6751 29.7704L30.3839 29.8753L30.2868 30.0325V30.2946V30.5042L30.4324 30.6615L30.5295 30.609L30.6751 30.2946L30.9663 29.9801L31.1119 29.7704V29.6656L31.0634 29.5608L30.9178 29.6132Z" fill="#2F2F27"/>
</g>
<g id="Group_78">
<path id="Vector_78" d="M29.6559 30.9233L29.85 31.0805L29.9956 31.1329L30.2868 31.0281L30.4324 30.9233L30.5295 30.8708L30.7237 31.1329C30.7237 31.3426 30.5781 31.5522 30.3839 31.8667L30.2383 32.1812L29.9471 32.4432C29.8015 32.4432 29.7044 32.3384 29.5102 31.8667C29.3646 31.4998 29.2676 31.2901 29.2676 31.1329L29.4617 30.8708L29.6559 30.9233Z" fill="#2F2F27"/>
</g>
<g id="Group_79">
<path id="Vector_79" d="M29.85 31.7092V31.9708L30.0442 32.2325C30.1413 32.2325 30.2383 32.0232 30.2869 31.7615L30.3354 31.5522L30.1898 31.4475H30.1413H30.0442H29.9956L29.8986 31.7092" fill="#FFDE26"/>
</g>
<g id="Group_80">
<path id="Vector_80" d="M15.3861 25.42H16.6481V28.1978H18.1527V25.42H21.89V28.1978H23.3461V25.42H24.5595V18.2395H23.1034L23.0549 18.1346C22.8608 17.8726 22.6666 17.7153 22.3754 17.7153C22.0842 17.7153 21.8415 17.8726 21.6959 18.2395H20.6766C20.5795 17.925 20.2883 17.7153 19.9971 17.7153C19.6574 17.7153 19.4147 17.8726 19.2691 18.2395H18.1527C17.9586 17.8726 17.7644 17.7153 17.4247 17.7153C17.0849 17.7153 16.8908 17.8726 16.7452 18.2395H15.3861V25.42Z" fill="#2B2C2C"/>
</g>
<g id="Group_81">
<path id="Vector_81" d="M24.0742 18.8159H15.92V24.8433H24.0742V18.8159Z" fill="#E53E33"/>
</g>
<g id="Group_82">
<path id="Vector_82" d="M16.7451 20.2312C16.5509 20.2312 16.3568 20.4406 16.3568 20.65C16.3568 20.8594 16.5509 21.0688 16.7451 21.0688C16.9392 21.0688 17.1334 20.8594 17.1334 20.65C17.1334 20.3882 16.9878 20.2312 16.7451 20.2312Z" fill="#FFDE26"/>
</g>
<g id="Group_83">
<path id="Vector_83" d="M16.7452 20.2837L16.4054 20.6501L16.7452 21.0165L17.0849 20.6501L16.7452 20.2837ZM16.7452 21.1212C16.5025 21.1212 16.3083 20.9118 16.3083 20.6501C16.3083 20.3883 16.5025 20.179 16.7452 20.179C16.9879 20.179 17.182 20.3883 17.182 20.6501C17.182 20.9118 16.9879 21.1212 16.7452 21.1212Z" fill="#2B2C2C"/>
</g>
<g id="Group_84">
<path id="Vector_84" d="M23.152 20.2312C22.9578 20.2312 22.7637 20.4406 22.7637 20.65C22.7637 20.8594 22.9578 21.0688 23.152 21.0688C23.3461 21.0688 23.5403 20.8594 23.5403 20.65C23.5403 20.3882 23.3946 20.2312 23.152 20.2312Z" fill="#FFDE26"/>
</g>
<g id="Group_85">
<path id="Vector_85" d="M23.1519 20.2837L22.8122 20.6501L23.1519 21.0165L23.4917 20.6501L23.1519 20.2837ZM23.1519 21.1212C22.9093 21.1212 22.7151 20.9118 22.7151 20.6501C22.7151 20.3883 22.9093 20.179 23.1519 20.179C23.3946 20.179 23.5888 20.3883 23.5888 20.6501C23.5888 20.9118 23.3946 21.1212 23.1519 21.1212Z" fill="#2B2C2C"/>
</g>
<g id="Group_86">
<path id="Vector_86" d="M16.7451 23.5332C16.5509 23.5332 16.3568 23.7426 16.3568 23.952C16.3568 24.1614 16.5509 24.3708 16.7451 24.3708C16.9392 24.3708 17.1334 24.1614 17.1334 23.952C17.1334 23.6903 16.9878 23.5332 16.7451 23.5332Z" fill="#FFDE26"/>
</g>
<g id="Group_87">
<path id="Vector_87" d="M16.7452 23.5857L16.4054 23.9521C16.4054 24.1615 16.551 24.3185 16.7452 24.3185L17.0849 23.9521L16.7452 23.5857ZM16.7452 24.4232C16.5025 24.4232 16.3083 24.2138 16.3083 23.9521C16.3083 23.6904 16.5025 23.481 16.7452 23.481C16.9879 23.481 17.182 23.6904 17.182 23.9521C17.182 24.2138 16.9879 24.4232 16.7452 24.4232Z" fill="#2B2C2C"/>
</g>
<g id="Group_88">
<path id="Vector_88" d="M23.152 23.5332C22.9578 23.5332 22.7637 23.7426 22.7637 23.952C22.7637 24.1614 22.9578 24.3708 23.152 24.3708C23.3461 24.3708 23.5403 24.1614 23.5403 23.952C23.5403 23.6903 23.3946 23.5332 23.152 23.5332Z" fill="#FFDE26"/>
</g>
<g id="Group_89">
<path id="Vector_89" d="M23.1519 23.5857L22.8122 23.9521L23.1519 24.3185L23.4917 23.9521L23.1519 23.5857ZM23.1519 24.4232C22.9093 24.4232 22.7151 24.2138 22.7151 23.9521C22.7151 23.6904 22.9093 23.481 23.1519 23.481C23.3946 23.481 23.5888 23.6904 23.5888 23.9521C23.5888 24.2138 23.3946 24.4232 23.1519 24.4232Z" fill="#2B2C2C"/>
</g>
<g id="Group_90">
<path id="Vector_90" d="M17.9586 22.2225C18.4925 22.9562 19.172 23.2707 19.9486 23.2707C20.7252 23.2707 21.2106 22.9562 21.8415 22.2225C21.2106 21.5411 20.6766 21.2791 19.9001 21.2791C19.172 21.2791 18.444 21.5935 17.9586 22.2225Z" fill="#FFDE26"/>
</g>
<g id="Group_91">
<path id="Vector_91" d="M18.3469 22.2227C18.8808 21.751 19.3662 21.5938 19.9001 21.5938C20.4825 21.5938 20.9193 21.751 21.4532 22.2751C20.9679 22.7992 20.5311 23.0089 19.9001 23.0089C19.3176 22.9565 18.8323 22.6944 18.3469 22.2227Z" fill="#2B2C2C"/>
</g>
<g id="Group_92">
<path id="Vector_92" d="M19.0264 22.1178C19.3662 22.3272 19.6088 22.4319 19.9001 22.4319C20.2398 22.4319 20.5796 22.3272 20.8223 22.1178C20.531 21.9607 20.1913 21.856 19.9001 21.856C19.6088 21.856 19.2691 21.9607 19.0264 22.1178Z" fill="#FFDE26"/>
</g>
<g id="Group_93">
<path id="Vector_93" d="M24.1713 19.1304H15.7744V19.4432H24.1713V19.1304Z" fill="#2B2C2C"/>
</g>
<g id="Group_94">
<path id="Vector_94" d="M15.823 19.1826H24.1713V19.4438H15.823V19.1826ZM15.7744 19.496H24.2198V19.1304H15.7744V19.496Z" fill="#2C2F2C"/>
</g>
<g id="Group_95">
<path id="Vector_95" d="M17.0848 18.7637V19.4975V19.6547C17.0848 19.8644 17.2304 20.0216 17.4246 20.0216C17.6673 20.0216 17.7643 19.9168 17.7643 19.6547V19.4975V18.8161C17.7643 18.5016 17.6187 18.292 17.4246 18.292L17.279 18.3444L17.1819 18.3968L17.0848 18.5016L17.0363 18.6589" fill="#FFDE26"/>
</g>
<g id="Group_96">
<path id="Vector_96" d="M19.6088 19.4448V19.602C19.6088 19.8116 19.7544 19.9689 19.9486 19.9689C20.1913 19.9689 20.2883 19.864 20.2883 19.602V19.4448V18.7634C20.2883 18.4489 20.1427 18.2393 19.9486 18.2393C19.7059 18.2393 19.5603 18.4489 19.5603 18.7634" fill="#FFDE26"/>
</g>
<g id="Group_97">
<path id="Vector_97" d="M22.0356 18.7637V19.4975V19.6547C22.0356 19.8644 22.1812 20.0216 22.3754 20.0216C22.618 20.0216 22.7151 19.9168 22.7151 19.6547V19.4975V18.8161C22.7151 18.5016 22.5695 18.292 22.3754 18.292L22.2297 18.3444L22.1327 18.3968L22.0356 18.5016L21.9871 18.6589" fill="#FFDE26"/>
</g>
<g id="Group_98">
<path id="Vector_98" d="M17.6674 26.0491H16.8908V27.096H17.6674V26.0491Z" fill="#FFDE26"/>
</g>
<g id="Group_99">
<path id="Vector_99" d="M17.6674 27.3591H16.8908V27.6719H17.6674V27.3591Z" fill="#FFDE26"/>
</g>
<g id="Group_100">
<path id="Vector_100" d="M22.8608 26.0491H22.0842V27.096H22.8608V26.0491Z" fill="#FFDE26"/>
</g>
<g id="Group_101">
<path id="Vector_101" d="M22.8608 27.3591H22.0842V27.6719H22.8608V27.3591Z" fill="#FFDE26"/>
</g>
</g>
</svg>
